<?xml version="1.0" encoding="utf-8"?>
<!-- Generator: Adobe Illustrator 16.0.0, SVG Export Plug-In . SVG Version: 6.00 Build 0)  -->
<!DOCTYPE svg PUBLIC "-//W3C//DTD SVG 1.1//EN" "http://www.w3.org/Graphics/SVG/1.1/DTD/svg11.dtd">
<svg version="1.1" id="Layer_1" xmlns="http://www.w3.org/2000/svg" xmlns:xlink="http://www.w3.org/1999/xlink" x="0px" y="0px"
	 width="768px" height="468px" viewBox="0 0 768 468" enable-background="new 0 0 768 468" xml:space="preserve">
<g>
	<rect x="-15.842" y="-10" fill="#211F1F" width="791.842" height="482.875"/>
	<g>
		<defs>
			<rect id="SVGID_1_" x="-16.41" y="-10" width="792.41" height="482.875"/>
		</defs>
		<clipPath id="SVGID_2_">
			<use xlink:href="#SVGID_1_"  overflow="visible"/>
		</clipPath>
		<path clip-path="url(#SVGID_2_)" fill="#A6A7AA" d="M98.624,408.715c0,0,24.399-33.213-12.783-53.622L66.56,344.874
			c0,0,6.55-5.336-2.438-11.015c0,0,9.087-9.033,7.678-15.525c0,0,22.881-3.262,18.338-17.431
			c-4.542-14.165-5.727,1.187-13.207,3.408c-7.479,2.222,4.705-18.897-0.535-22.395c-5.24-3.498-19.812-11.005-30.571,5.607
			c-10.758,16.614-8.829,26.464-8.829,26.464s-13.604,5.106-10.988,18.214c2.617,13.106-10.293,2.419-3.432,27.671
			c6.862,25.25,23.19,18.168,31.359,25.794c8.17,7.627,2.652,16.888,15.599,21.439C82.48,411.66,86.35,419.448,98.624,408.715"/>
		<path clip-path="url(#SVGID_2_)" fill="none" stroke="#211F1F" stroke-width="5.502" stroke-miterlimit="10" d="M98.624,408.715
			c0,0,24.399-33.213-12.783-53.622L66.56,344.874c0,0,6.55-5.336-2.438-11.015c0,0,9.087-9.033,7.678-15.525
			c0,0,22.881-3.262,18.338-17.431c-4.542-14.165-5.727,1.187-13.207,3.408c-7.479,2.222,4.705-18.897-0.535-22.395
			c-5.24-3.498-19.812-11.005-30.571,5.607c-10.758,16.614-8.829,26.464-8.829,26.464s-13.604,5.106-10.988,18.214
			c2.617,13.106-10.293,2.419-3.432,27.671c6.862,25.25,23.19,18.168,31.359,25.794c8.17,7.627,2.652,16.888,15.599,21.439
			C82.48,411.66,86.35,419.448,98.624,408.715z"/>
		<path clip-path="url(#SVGID_2_)" fill="none" stroke="#211F1F" stroke-width="5.669" stroke-miterlimit="10" d="M71.794,319.842
			c0,0-11.073-11.954-35.862-4.478"/>
		<path clip-path="url(#SVGID_2_)" fill="none" stroke="#211F1F" stroke-width="1.89" stroke-miterlimit="10" d="M63.883,335.84
			c0,0-24.962-5.457-39.755,4.895"/>
		<g opacity="0.8" clip-path="url(#SVGID_2_)">
			<g>
				<defs>
					<rect id="SVGID_3_" x="54.587" y="284.377" width="46.095" height="100.377"/>
				</defs>
				<clipPath id="SVGID_4_">
					<use xlink:href="#SVGID_3_"  overflow="visible"/>
				</clipPath>
				
					<path clip-path="url(#SVGID_4_)" fill="none" stroke="#FFFFFF" stroke-width="5.67" stroke-linecap="round" stroke-linejoin="round" stroke-miterlimit="10" d="
					M68.895,287.303c0,0-2.678,11.14-1.462,17.731c1.214,6.593-3.791,19.017-7.493,21.812c-3.702,2.796-2.07,12.105-2.07,12.105
					l-0.222,9.253c0,0,38.241,14.738,40.11,33.626"/>
			</g>
		</g>
		<path clip-path="url(#SVGID_2_)" fill="#818181" d="M55.454,422.403c0,0-22.053,12.017-35.283,34.437
			c0,0-8.821-30.283-15.437-34.437c-6.616-4.154-24.015-7.607-35.529,0c-11.516,7.607-40.917,22.614-39.448,40.838
			c1.47,18.224,12.497,25.531,27.198,18.568c14.701-6.961,35.624,12.886,35.624,12.886l56.259,23.758
			c0,0,45.636-25.228,46.339-28.168C95.882,487.345,55.454,422.403,55.454,422.403"/>
		
			<path clip-path="url(#SVGID_2_)" fill="none" stroke="#211F1F" stroke-width="6.412" stroke-linecap="round" stroke-linejoin="round" stroke-miterlimit="10" d="
			M55.454,422.403c0,0-22.053,12.017-35.283,34.437c0,0-8.821-30.283-15.437-34.437c-6.616-4.154-24.015-7.607-35.529,0
			c-11.516,7.607-40.917,22.614-39.448,40.838c1.47,18.224,12.497,25.531,27.198,18.568c14.701-6.961,35.624,12.886,35.624,12.886
			l56.259,23.758c0,0,45.636-25.228,46.339-28.168C95.882,487.345,55.454,422.403,55.454,422.403z"/>
		<path clip-path="url(#SVGID_2_)" fill="#565757" d="M-25.293,425.597c0,0,28.642-1.86,30.927,6.48
			c2.285,8.34,6.666,13.199-23.914,30.594c-30.579,17.396-40.723,19.571-42.113,14.358c-1.39-5.212-12.247-17.289,8.688-33.435
			C-34.676,430.463-25.293,425.597-25.293,425.597"/>
		<path clip-path="url(#SVGID_2_)" fill="#A6A7AA" d="M187.03,420.453c0,0-8.959,21.685-15.689,32.711
			c-6.73,11.026-1.298,10.292-16.51,24.625c-15.212,14.334-4.921,15.069-15.212,29.402c-10.291,14.334-18.744,23.155-28.667,30.872
			c-9.924,7.719-21.685,14.701-32.343,14.334c-10.659-0.367-56.232-18.009-64.317-28.3c-8.086-10.291-11.027-12.496-20.214-11.025
			c-9.188,1.471-40.429-4.043-41.532-20.214c-1.103-16.173,5.514-26.096,25.36-28.301c19.847-2.205,13.966-25.26,38.591-18.248
			c17.263,4.915,15.068,19.351,23.522,29.642c8.453,10.29,14.702,8.821,22.052,14.334c0,0,7.351-8.808,10.658-3.854
			c0,0-30.504-23.711-26.094-52.012c4.411-28.3,35.65-70.198,44.471-80.122c8.82-9.922,23.155-16.538,26.094-13.23
			C120.139,344.376,189.235,399.138,187.03,420.453"/>
		
			<path clip-path="url(#SVGID_2_)" fill="none" stroke="#211F1F" stroke-width="6.412" stroke-linecap="round" stroke-linejoin="round" stroke-miterlimit="10" d="
			M187.03,420.453c0,0-8.959,21.685-15.689,32.711c-6.73,11.026-1.298,10.292-16.51,24.625
			c-15.212,14.334-4.921,15.069-15.212,29.402c-10.291,14.334-18.744,23.155-28.667,30.872
			c-9.924,7.719-21.685,14.701-32.343,14.334c-10.659-0.367-56.232-18.009-64.317-28.3c-8.086-10.291-11.027-12.496-20.214-11.025
			c-9.188,1.471-40.429-4.043-41.532-20.214c-1.103-16.173,5.514-26.096,25.36-28.301c19.847-2.205,13.966-25.26,38.591-18.248
			c17.263,4.915,15.068,19.351,23.522,29.642c8.453,10.29,14.702,8.821,22.052,14.334c0,0,7.351-8.808,10.658-3.854
			c0,0-30.504-23.711-26.094-52.012c4.411-28.3,35.65-70.198,44.471-80.122c8.82-9.922,23.155-16.538,26.094-13.23
			C120.139,344.376,189.235,399.138,187.03,420.453z"/>
		<path clip-path="url(#SVGID_2_)" fill="#FFFFFF" d="M103.233,325.983c0,30.98,26.658,56.094,59.54,56.094
			c32.883,0,59.541-25.113,59.541-56.094s-26.657-56.095-59.541-56.095C129.891,269.889,103.233,295.003,103.233,325.983"/>
		
			<ellipse clip-path="url(#SVGID_2_)" fill="none" stroke="#211F1F" stroke-width="10.686" stroke-miterlimit="10" cx="162.773" cy="325.983" rx="59.54" ry="56.094"/>
		<path clip-path="url(#SVGID_2_)" fill="#A6A7AA" d="M162.773,269.888c26.869-1.041,43.736,28.459,43.736,59.438
			c0,30.98-10.853,52.752-43.736,52.752c0,0-56.425,4.875-59.54-56.096C100.605,274.545,162.773,269.888,162.773,269.888"/>
		<path clip-path="url(#SVGID_2_)" fill="none" stroke="#211F1F" stroke-width="6.412" stroke-miterlimit="10" d="M162.773,269.888
			c26.869-1.041,43.736,28.459,43.736,59.438c0,30.98-10.853,52.752-43.736,52.752c0,0-56.425,4.875-59.54-56.096
			C100.605,274.545,162.773,269.888,162.773,269.888"/>
		<path clip-path="url(#SVGID_2_)" fill="none" stroke="#211F1F" stroke-width="2.137" stroke-miterlimit="10" d="M154.831,271.067
			c0,0,31.832,24.466,32.934,58.259c1.103,33.792-8.453,50.394-24.992,52.752"/>
		<path clip-path="url(#SVGID_2_)" fill="#739E6D" d="M109.098,303.547l-5.865-12.097c0,0,18.376-44.654,56.416-23.721
			c0,0,20.621,9.224,32.199,41.888c11.576,32.665-4.149,40.383-8.965,42.037c-4.818,1.653-12.273-0.552-16.54-12.129
			C162.078,327.948,142.125,305.068,109.098,303.547"/>
		<path clip-path="url(#SVGID_2_)" fill="none" stroke="#211F1F" stroke-width="6.412" stroke-miterlimit="10" d="M109.098,303.547
			l-5.865-12.097c0,0,18.376-44.654,56.416-23.721c0,0,20.621,9.224,32.199,41.888c11.576,32.665-4.149,40.383-8.965,42.037
			c-4.818,1.653-12.273-0.552-16.54-12.129C162.078,327.948,142.125,305.068,109.098,303.547z"/>
		<path clip-path="url(#SVGID_2_)" fill="#526D4D" d="M110.951,291.45c0,0,48.515,3.001,64.318,40.276c0,0,3.761,10.812,11.76,8.238
			c0,0-6.014,14.35-15.688-2.573c-9.506-16.628-15.183-30.084-57.226-40.428L110.951,291.45z"/>
		<path clip-path="url(#SVGID_2_)" fill="#211F1F" d="M178.8,329.252c0,3.683,2.226,6.67,4.971,6.67c2.746,0,4.972-2.987,4.972-6.67
			c0-3.684-2.226-6.669-4.972-6.669C181.026,322.583,178.8,325.568,178.8,329.252"/>
		<path clip-path="url(#SVGID_2_)" fill="none" stroke="#211F1F" stroke-width="2.137" stroke-miterlimit="10" d="M235.544,395.365
			c0,0,12.336,40.796,6.536,54.076"/>
		<path clip-path="url(#SVGID_2_)" fill="none" stroke="#211F1F" stroke-width="2.137" stroke-miterlimit="10" d="M239.587,389.946
			c0,0,20.033,26.104,17.551,54.769"/>
		<polygon clip-path="url(#SVGID_2_)" fill="#0D8B7B" points="79.344,337.392 103.152,329.252 162.773,366.06 167.183,389.946 
			114.259,460.883 83.019,468.601 40.002,438.279 35.96,407.552 		"/>
		
			<polygon clip-path="url(#SVGID_2_)" fill="none" stroke="#211F1F" stroke-width="6.412" stroke-linecap="round" stroke-linejoin="round" stroke-miterlimit="10" points="
			79.344,337.392 103.152,329.252 162.773,366.06 167.183,389.946 114.259,460.883 83.019,468.601 40.002,438.279 35.96,407.552 		
			"/>
		<path clip-path="url(#SVGID_2_)" fill="none" stroke="#211F1F" stroke-width="6.412" stroke-miterlimit="10" d="M30.354,456.84
			c0,0,6.908,12.863-4.119,25.175C15.209,494.328,5.344,509.607-28.59,509.96"/>
		<polygon clip-path="url(#SVGID_2_)" fill="#129F88" points="156.417,370.104 105.438,440.301 111.146,456.839 160.568,389.946 		
			"/>
		<polygon clip-path="url(#SVGID_2_)" fill="#40BAA0" points="108.134,458.754 102.979,441.695 86.695,444.715 86.633,463.241 		"/>
		<path clip-path="url(#SVGID_2_)" fill="none" stroke="#211F1F" stroke-width="6.412" stroke-miterlimit="10" d="M156.417,472.644
			c0,0-8.179-12.593-33.622-23.202"/>
		<path clip-path="url(#SVGID_2_)" fill="#7B7B7C" d="M-2.616,461.042c0,0,2.313-12.946,17.641-8.574s15.437,18.343,9.924,25.507
			c-5.513,7.165-26.133,30.114-46.677,27.38c-20.543-2.735-19.479-12.851-18.745-18.921c0.736-6.072,3.677-14.157,19.848-15.261
			C-4.454,470.07-2.616,461.042-2.616,461.042"/>
		
			<line clip-path="url(#SVGID_2_)" fill="none" stroke="#211F1F" stroke-width="2.137" stroke-miterlimit="10" x1="-4.257" y1="451.566" x2="26.235" y2="482.016"/>
		
			<line clip-path="url(#SVGID_2_)" fill="none" stroke="#211F1F" stroke-width="2.137" stroke-miterlimit="10" x1="-12.711" y1="461.042" x2="15.178" y2="494.161"/>
		
			<line clip-path="url(#SVGID_2_)" fill="none" stroke="#211F1F" stroke-width="2.137" stroke-miterlimit="10" x1="-22.095" y1="464.559" x2="1.951" y2="503.628"/>
		<g opacity="0.5" clip-path="url(#SVGID_2_)">
			<g>
				<defs>
					<rect id="SVGID_5_" x="-32.423" y="466.791" width="22.351" height="41.11"/>
				</defs>
				<clipPath id="SVGID_6_">
					<use xlink:href="#SVGID_5_"  overflow="visible"/>
				</clipPath>
				<line clip-path="url(#SVGID_6_)" fill="#211F1F" x1="-10.072" y1="507.901" x2="-32.424" y2="466.79"/>
			</g>
		</g>
		<path clip-path="url(#SVGID_2_)" fill="#98CA8F" d="M122.161,276.566c0,0,29.954,21.5,45.023,23.705
			c15.069,2.204,18.376,12.128,18.376,12.128l1.47,9.632c0,0-7.525-4.736-10.842,0c-3.317,4.736-15.62-28.376-62.074-34.991
			L122.161,276.566z"/>
		<path clip-path="url(#SVGID_2_)" fill="#A6A7AA" d="M157.095,399.381c0,0,18.302-42.867,59.565-18.403l21.044,12.895
			c0,0,1.428-9.446,12.128-3.963c0,0,3.566-14.044,10.7-16.406c0,0-9.987-24.157,6.42-27.885s2.14,6.261,4.279,14.821
			c2.141,8.56,15.695-15.454,22.115-12.365c6.421,3.091,22.114,12.961,12.127,32.994c-9.988,20.032-20.687,23.821-20.687,23.821
			s2.853,16.184-11.415,21.177c-14.267,4.994,3.566,11.414-24.968,19.262c-28.534,7.847-31.03-12.127-43.158-15.694
			c-12.126-3.567-17.967,7.134-29.849-2.853C163.515,416.794,153.707,417.508,157.095,399.381"/>
		<path clip-path="url(#SVGID_2_)" fill="none" stroke="#211F1F" stroke-width="6.222" stroke-miterlimit="10" d="M157.095,399.381
			c0,0,18.302-42.867,59.565-18.403l21.044,12.895c0,0,1.428-9.446,12.128-3.963c0,0,3.566-14.044,10.7-16.406
			c0,0-9.987-24.157,6.42-27.885s2.14,6.261,4.279,14.821c2.141,8.56,15.695-15.454,22.115-12.365
			c6.421,3.091,22.114,12.961,12.127,32.994c-9.988,20.032-20.687,23.821-20.687,23.821s2.853,16.184-11.415,21.177
			c-14.267,4.994,3.566,11.414-24.968,19.262c-28.534,7.847-31.03-12.127-43.158-15.694c-12.126-3.567-17.967,7.134-29.849-2.853
			C163.515,416.794,153.707,417.508,157.095,399.381z"/>
		<path clip-path="url(#SVGID_2_)" fill="none" stroke="#211F1F" stroke-width="6.412" stroke-miterlimit="10" d="M259.066,374.375
			c0,0,18.009,3.905,24.992,32.342"/>
		<path clip-path="url(#SVGID_2_)" fill="none" stroke="#211F1F" stroke-width="2.137" stroke-miterlimit="10" d="M248.041,391.281
			c0,0,19.675,21.166,18.106,41.524"/>
		<g opacity="0.8" clip-path="url(#SVGID_2_)">
			<g>
				<defs>
					<rect id="SVGID_7_" x="180.464" y="355.169" width="115.262" height="52.604"/>
				</defs>
				<clipPath id="SVGID_8_">
					<use xlink:href="#SVGID_7_"  overflow="visible"/>
				</clipPath>
				
					<path clip-path="url(#SVGID_8_)" fill="none" stroke="#FFFFFF" stroke-width="6.412" stroke-linecap="round" stroke-linejoin="round" stroke-miterlimit="10" d="
					M292.418,358.477c0,0-9.308,9.017-16.425,11.625c-7.117,2.609-16.335,14.633-16.928,19.845
					c-0.592,5.213-10.596,8.98-10.596,8.98l-8.883,5.539c0,0-36.351-28.757-55.815-19.71"/>
			</g>
		</g>
		<path clip-path="url(#SVGID_2_)" fill="#A6A7AA" d="M83.019,344.815l18.552-8.894l49.001,34.18c0,0-41.286,57.939-43.155,56.297
			c-1.869-1.641,15.022-34.052-10.034-44.416C72.327,371.616,83.019,344.815,83.019,344.815"/>
		<path clip-path="url(#SVGID_2_)" fill="#211F1F" d="M92.014,347.536c-0.041-0.472-0.198-0.937-0.472-1.396
			c-0.273-0.459-0.611-0.823-1.011-1.092c-0.395-0.263-0.825-0.436-1.29-0.517c-0.464-0.079-0.928-0.069-1.39,0.033
			c-0.462,0.103-0.892,0.283-1.291,0.545c-0.398,0.261-0.729,0.589-0.992,0.982c-0.252,0.377-0.419,0.791-0.501,1.243
			c-0.083,0.452-0.078,0.905,0.015,1.362c0.1,0.459,0.276,0.895,0.532,1.305c0.256,0.41,0.571,0.739,0.943,0.988
			c0.189,0.127,0.401,0.233,0.638,0.32s0.483,0.151,0.74,0.193c0.258,0.043,0.514,0.06,0.767,0.054
			c0.253-0.007,0.485-0.045,0.696-0.111l-0.382,0.573c-0.484,0.053-0.957,0.029-1.418-0.074c-0.461-0.104-0.891-0.288-1.285-0.553
			c-0.441-0.294-0.809-0.666-1.101-1.112c-0.294-0.448-0.494-0.935-0.6-1.457c-0.106-0.524-0.114-1.049-0.023-1.575
			c0.09-0.525,0.287-1.015,0.589-1.466c0.306-0.459,0.685-0.832,1.135-1.12c0.451-0.291,0.938-0.486,1.463-0.589
			c0.524-0.103,1.048-0.104,1.574-0.002c0.526,0.099,1.015,0.302,1.467,0.604c0.39,0.26,0.723,0.593,1.001,0.995
			c0.278,0.404,0.469,0.836,0.579,1.292L92.014,347.536z"/>
		<path clip-path="url(#SVGID_2_)" fill="#211F1F" d="M99.971,351.172c0.293,0.448,0.491,0.933,0.595,1.454
			c0.103,0.521,0.105,1.045,0.007,1.57c-0.098,0.524-0.297,1.014-0.601,1.465c-0.302,0.452-0.677,0.824-1.125,1.115
			s-0.932,0.489-1.453,0.593c-0.522,0.104-1.046,0.106-1.571,0.007c-0.526-0.101-1.012-0.3-1.459-0.599s-0.816-0.671-1.106-1.117
			c-0.291-0.445-0.488-0.929-0.59-1.45c-0.103-0.522-0.107-1.047-0.011-1.574c0.095-0.527,0.294-1.016,0.596-1.468
			c0.302-0.452,0.677-0.823,1.125-1.115c0.448-0.291,0.932-0.488,1.453-0.593c0.521-0.104,1.045-0.105,1.571-0.006
			c0.525,0.101,1.011,0.3,1.459,0.598C99.309,350.352,99.677,350.725,99.971,351.172 M97.315,349.919
			c-0.461-0.086-0.92-0.082-1.378,0.016c-0.458,0.096-0.884,0.271-1.279,0.526c-0.395,0.256-0.726,0.582-0.993,0.984
			c-0.267,0.398-0.443,0.83-0.528,1.292c-0.085,0.462-0.084,0.923,0.004,1.38c0.088,0.456,0.259,0.882,0.512,1.279
			c0.254,0.396,0.578,0.725,0.973,0.99c0.395,0.263,0.824,0.438,1.288,0.521c0.462,0.083,0.921,0.078,1.377-0.017
			c0.456-0.093,0.882-0.268,1.279-0.527c0.397-0.257,0.727-0.585,0.99-0.979c0.264-0.394,0.441-0.821,0.531-1.286
			c0.091-0.463,0.091-0.925,0.002-1.387c-0.089-0.463-0.261-0.89-0.517-1.282c-0.255-0.394-0.581-0.722-0.976-0.986
			C98.204,350.18,97.776,350.004,97.315,349.919"/>
		<path clip-path="url(#SVGID_2_)" fill="#211F1F" d="M109.139,358.988c-0.042-0.472-0.198-0.938-0.472-1.397
			c-0.274-0.461-0.611-0.822-1.011-1.091c-0.395-0.264-0.825-0.437-1.29-0.517c-0.465-0.08-0.928-0.069-1.39,0.032
			c-0.462,0.103-0.892,0.284-1.291,0.545c-0.398,0.261-0.729,0.59-0.992,0.983c-0.252,0.377-0.419,0.79-0.501,1.243
			c-0.083,0.45-0.077,0.905,0.016,1.361c0.099,0.459,0.276,0.894,0.532,1.305c0.256,0.409,0.57,0.74,0.943,0.988
			c0.189,0.128,0.401,0.233,0.638,0.32s0.484,0.151,0.741,0.194c0.258,0.042,0.513,0.059,0.766,0.053
			c0.253-0.007,0.485-0.044,0.697-0.111l-0.383,0.573c-0.483,0.053-0.956,0.029-1.417-0.075c-0.461-0.104-0.891-0.288-1.286-0.552
			c-0.441-0.296-0.808-0.665-1.101-1.113c-0.294-0.447-0.495-0.934-0.599-1.456c-0.106-0.524-0.114-1.049-0.023-1.574
			c0.09-0.526,0.287-1.016,0.589-1.467c0.305-0.458,0.684-0.832,1.134-1.12c0.451-0.29,0.938-0.486,1.463-0.589
			c0.524-0.102,1.048-0.103,1.575-0.002c0.525,0.099,1.015,0.302,1.467,0.604c0.39,0.261,0.724,0.593,1.001,0.995
			c0.278,0.404,0.47,0.836,0.579,1.293L109.139,358.988z"/>
		<path clip-path="url(#SVGID_2_)" fill="#211F1F" d="M117.096,362.623c0.293,0.448,0.492,0.934,0.595,1.454
			c0.104,0.522,0.105,1.045,0.007,1.57s-0.298,1.014-0.601,1.466c-0.302,0.451-0.677,0.823-1.125,1.114s-0.932,0.489-1.454,0.592
			c-0.521,0.105-1.044,0.107-1.57,0.007s-1.012-0.299-1.459-0.598c-0.446-0.3-0.815-0.671-1.105-1.116
			c-0.291-0.446-0.487-0.931-0.59-1.451c-0.103-0.522-0.107-1.047-0.011-1.574c0.095-0.526,0.294-1.016,0.597-1.468
			c0.301-0.452,0.677-0.823,1.125-1.114c0.448-0.292,0.931-0.488,1.453-0.594c0.522-0.104,1.044-0.106,1.571-0.006
			c0.525,0.101,1.011,0.301,1.459,0.599C116.433,361.804,116.803,362.176,117.096,362.623 M114.441,361.369
			c-0.462-0.085-0.921-0.081-1.379,0.016c-0.457,0.097-0.884,0.271-1.278,0.528c-0.396,0.255-0.727,0.582-0.994,0.983
			c-0.267,0.398-0.444,0.83-0.529,1.292c-0.085,0.462-0.084,0.923,0.004,1.38c0.088,0.456,0.259,0.883,0.512,1.279
			c0.254,0.396,0.578,0.725,0.973,0.989s0.824,0.439,1.288,0.521c0.462,0.081,0.921,0.077,1.377-0.017
			c0.456-0.093,0.882-0.267,1.279-0.526c0.397-0.258,0.727-0.585,0.99-0.979c0.263-0.394,0.44-0.822,0.53-1.287
			c0.091-0.463,0.091-0.925,0.002-1.387c-0.089-0.463-0.261-0.89-0.517-1.282c-0.254-0.393-0.581-0.723-0.976-0.985
			C115.329,361.631,114.901,361.455,114.441,361.369"/>
		<path clip-path="url(#SVGID_2_)" fill="#211F1F" d="M126.153,368.679c0.293,0.448,0.491,0.933,0.594,1.454
			c0.104,0.521,0.105,1.045,0.008,1.571c-0.098,0.524-0.298,1.013-0.601,1.465c-0.303,0.451-0.677,0.823-1.125,1.114
			c-0.447,0.291-0.933,0.49-1.454,0.593c-0.521,0.104-1.045,0.106-1.57,0.007c-0.526-0.101-1.012-0.299-1.459-0.599
			c-0.447-0.299-0.816-0.671-1.106-1.116c-0.291-0.446-0.487-0.93-0.59-1.451c-0.103-0.521-0.107-1.046-0.012-1.574
			c0.095-0.527,0.294-1.016,0.597-1.468c0.301-0.451,0.677-0.823,1.125-1.114c0.448-0.292,0.932-0.489,1.453-0.593
			c0.522-0.104,1.045-0.106,1.571-0.007c0.525,0.101,1.011,0.3,1.459,0.599C125.49,367.858,125.859,368.231,126.153,368.679
			 M123.498,367.426c-0.461-0.086-0.92-0.082-1.379,0.016c-0.458,0.096-0.884,0.271-1.278,0.526
			c-0.395,0.257-0.726,0.583-0.994,0.984c-0.267,0.399-0.443,0.83-0.528,1.293c-0.085,0.461-0.084,0.921,0.004,1.379
			c0.087,0.457,0.259,0.883,0.512,1.279c0.254,0.396,0.578,0.725,0.973,0.99c0.395,0.264,0.824,0.438,1.288,0.521
			c0.462,0.084,0.921,0.079,1.377-0.016c0.456-0.093,0.882-0.269,1.279-0.528c0.396-0.257,0.727-0.585,0.989-0.978
			c0.264-0.395,0.44-0.822,0.53-1.287c0.091-0.462,0.091-0.925,0.002-1.387c-0.088-0.463-0.261-0.891-0.517-1.282
			c-0.254-0.393-0.581-0.721-0.976-0.986C124.385,367.687,123.958,367.512,123.498,367.426"/>
		<polygon clip-path="url(#SVGID_2_)" fill="#211F1F" points="132.395,382.396 130.864,372.911 127.1,378.541 126.688,378.266 
			131.126,371.628 132.684,381.068 136.507,375.353 136.919,375.628 		"/>
		<g opacity="0.5" clip-path="url(#SVGID_2_)">
			<g>
				<defs>
					<rect id="SVGID_9_" x="120.768" y="366.505" width="181.957" height="121.112"/>
				</defs>
				<clipPath id="SVGID_10_">
					<use xlink:href="#SVGID_9_"  overflow="visible"/>
				</clipPath>
				<path clip-path="url(#SVGID_10_)" fill="#211F1F" d="M300.989,367.374c0,0,3.905,8.435,0,17.468
					c-3.906,9.033-13.739,13.909-16.203,20.047c-2.463,6.14-0.58,20.037-8.793,20.037c-8.212,0-9.033,16.357-20.53,16.77
					c-11.497,0.409-30.828,8.946-37.507-2.286c-6.679-11.229-23.394-13.522-30.926-8.297c-7.531,5.228-10.67,8.453-12.315,16.026
					c-1.646,7.575-11.439,22.308-18.298,29.136c-6.858,6.829-16.811,11.344-16.811,11.344l-18.839-8.103
					c0,0,28.923-22.338,28.225-34.801c-0.7-12.463,12.03-22.686,15.726-26.813s32.258-11.302,41.792-4.431
					c9.535,6.873,24.894,17.438,31.586,11.949c6.693-5.487,18.152-9.304,24.535-11.296c6.383-1.993-2.89-17.001,8.932-22.843
					c11.824-5.841,13.877-5.051,14.698-10.372C287.08,375.586,291.754,363.122,300.989,367.374"/>
			</g>
		</g>
		<polygon clip-path="url(#SVGID_2_)" fill="#018071" points="200.771,398.611 206.613,395.924 210.461,397.349 199.348,402.459 
			194.237,391.347 198.084,392.77 		"/>
		<polygon clip-path="url(#SVGID_2_)" fill="#0D8B7B" points="203.927,390.083 198.084,392.771 194.237,391.346 205.35,386.236 
			210.461,397.348 206.613,395.925 		"/>
		<polygon clip-path="url(#SVGID_2_)" fill="#0D8B7B" points="190.154,389.836 201.039,384.842 201.871,386.654 192.801,390.815 		
			"/>
		<polygon clip-path="url(#SVGID_2_)" fill="#018071" points="190.154,389.836 195.168,400.712 196.978,399.877 192.801,390.815 		
			"/>
		<polygon clip-path="url(#SVGID_2_)" fill="#0D8B7B" points="214.544,398.859 209.529,387.983 207.72,388.817 211.897,397.881 		
			"/>
		<polygon clip-path="url(#SVGID_2_)" fill="#018071" points="214.544,398.859 203.658,403.853 202.827,402.042 211.897,397.881 		
			"/>
		<polygon clip-path="url(#SVGID_2_)" fill="#565757" points="39.479,412.043 86.694,444.714 86.633,466.791 43.236,434.317 		"/>
	</g>
	<g>
		<path fill="#A6A7AA" d="M579.269,359.68c0,0-11.798-8.862-1.164-19.703l5.554-5.498c0,0-2.797-1.151-0.304-4.026
			c0,0-4.048-2.158-4.236-4.528c0,0-8.182,1.247-8.089-4.079c0.092-5.326,2.087-0.186,4.879-0.196
			c2.794-0.014-3.566-5.992-2.133-7.732c1.436-1.742,5.654-5.822,11.061-1.239c5.405,4.582,5.763,8.158,5.763,8.158
			s5.19,0.344,5.65,5.107c0.458,4.763,3.778-0.235,4.037,9.13c0.26,9.365-6.069,8.627-8.082,12.085
			c-2.012,3.46,0.839,6.063-3.13,8.963C585.107,359.02,584.587,362.089,579.269,359.68"/>
		<path fill="none" stroke="#211F1F" stroke-width="1.97" stroke-miterlimit="10" d="M579.269,359.68c0,0-11.798-8.862-1.164-19.703
			l5.554-5.498c0,0-2.797-1.151-0.304-4.026c0,0-4.048-2.158-4.236-4.528c0,0-8.182,1.247-8.089-4.079
			c0.092-5.326,2.087-0.186,4.879-0.196c2.794-0.014-3.566-5.992-2.133-7.732c1.436-1.742,5.654-5.822,11.061-1.239
			c5.405,4.582,5.763,8.158,5.763,8.158s5.19,0.344,5.65,5.107c0.458,4.763,3.778-0.235,4.037,9.13
			c0.26,9.365-6.069,8.627-8.082,12.085c-2.012,3.46,0.839,6.063-3.13,8.963C585.107,359.02,584.587,362.089,579.269,359.68z"/>
		<path fill="none" stroke="#211F1F" stroke-width="2.03" stroke-miterlimit="10" d="M579.275,326.44c0,0,2.56-5.243,11.83-5.244"/>
		<path fill="none" stroke="#211F1F" stroke-width="0.677" stroke-miterlimit="10" d="M583.642,331.105
			c0,0,7.992-4.452,14.134-2.434"/>
		<g opacity="0.8">
			<g>
				<defs>
					<rect id="SVGID_11_" x="575.635" y="313.938" width="12.469" height="37.482"/>
				</defs>
				<clipPath id="SVGID_12_">
					<use xlink:href="#SVGID_11_"  overflow="visible"/>
				</clipPath>
				
					<path clip-path="url(#SVGID_12_)" fill="none" stroke="#FFFFFF" stroke-width="2.03" stroke-linecap="round" stroke-linejoin="round" stroke-miterlimit="10" d="
					M576.904,314.986c0,0,2.069,3.541,2.335,5.927c0.266,2.385,3.267,6.126,4.824,6.701c1.558,0.576,1.961,3.937,1.961,3.937
					l1.032,3.148c0,0-11.584,9.008-10.271,15.675"/>
			</g>
		</g>
		<path fill="#818181" d="M595.483,359.907c0,0,8.802,1.838,15.656,8.155c0,0-0.108-11.291,1.729-13.399
			c1.838-2.109,7.445-5.093,12.179-3.675c4.733,1.417,16.365,3.521,17.745,9.92s-1.643,10.045-7.402,9.177
			c-5.759-0.865-10.879,8.102-10.879,8.102l-16.828,13.962c0,0-18.252-3.929-18.798-4.864
			C588.339,386.35,595.483,359.907,595.483,359.907"/>
		
			<path fill="none" stroke="#211F1F" stroke-width="2.296" stroke-linecap="round" stroke-linejoin="round" stroke-miterlimit="10" d="
			M595.483,359.907c0,0,8.802,1.838,15.656,8.155c0,0-0.108-11.291,1.729-13.399c1.838-2.109,7.445-5.093,12.179-3.675
			c4.733,1.417,16.365,3.521,17.745,9.92s-1.643,10.045-7.402,9.177c-5.759-0.865-10.879,8.102-10.879,8.102l-16.828,13.962
			c0,0-18.252-3.929-18.798-4.864C588.339,386.35,595.483,359.907,595.483,359.907z"/>
		<path fill="#565757" d="M623.492,352.652c0,0-10.01,2.324-9.931,5.419c0.079,3.096-0.92,5.214,11.36,8.015
			c12.281,2.802,15.983,2.498,15.922,0.567c-0.064-1.931,2.41-7.192-6.437-10.562C627.213,353.349,623.492,352.652,623.492,352.652"
			/>
		<path fill="#A6A7AA" d="M550.177,372.846c0,0,5.314,6.507,8.762,9.59c3.447,3.085,1.51,3.394,8.206,6.734
			c6.697,3.341,3.245,4.656,8.255,8.506c5.011,3.849,8.819,5.999,13.02,7.618c4.2,1.62,8.953,2.797,12.569,1.569
			c3.615-1.229,17.414-11.988,19.121-16.354c1.708-4.362,2.487-5.424,5.789-5.868c3.302-0.448,13.44-5.567,12.146-11.224
			c-1.294-5.659-4.588-8.376-11.618-7.079c-7.032,1.296-7.4-7.215-15.116-2.266c-5.409,3.47-3.164,8.191-4.997,12.594
			c-1.834,4.402-4.128,4.544-6.077,7.194c0,0-3.432-2.26-4.052-0.22c0,0,8.004-11.282,3.564-20.527
			c-4.438-9.244-19.48-20.376-23.529-22.866c-4.05-2.489-9.646-3.274-10.312-1.838C565.24,339.85,547.218,365.768,550.177,372.846"
			/>
		
			<path fill="none" stroke="#211F1F" stroke-width="2.296" stroke-linecap="round" stroke-linejoin="round" stroke-miterlimit="10" d="
			M550.177,372.846c0,0,5.314,6.507,8.762,9.59c3.447,3.085,1.51,3.394,8.206,6.734c6.697,3.341,3.245,4.656,8.255,8.506
			c5.011,3.849,8.819,5.999,13.02,7.618c4.2,1.62,8.953,2.797,12.569,1.569c3.615-1.229,17.414-11.988,19.121-16.354
			c1.708-4.362,2.487-5.424,5.789-5.868c3.302-0.448,13.44-5.567,12.146-11.224c-1.294-5.659-4.588-8.376-11.618-7.079
			c-7.032,1.296-7.4-7.215-15.116-2.266c-5.409,3.47-3.164,8.191-4.997,12.594c-1.834,4.402-4.128,4.544-6.077,7.194
			c0,0-3.432-2.26-4.052-0.22c0,0,8.004-11.282,3.564-20.527c-4.438-9.244-19.48-20.376-23.529-22.866
			c-4.05-2.489-9.646-3.274-10.312-1.838C565.24,339.85,547.218,365.768,550.177,372.846z"/>
		<path fill="#FFFFFF" d="M569.133,331.796c3.205,10.62-3.337,21.985-14.609,25.387c-11.271,3.4-23.006-2.452-26.21-13.072
			c-3.203-10.62,3.337-21.984,14.608-25.386C554.195,315.323,565.93,321.177,569.133,331.796"/>
		
			<ellipse transform="matrix(0.9574 -0.2888 0.2888 0.9574 -74.2238 172.8877)" fill="none" stroke="#211F1F" stroke-width="3.826" stroke-miterlimit="10" cx="548.723" cy="337.953" rx="21.318" ry="20.085"/>
		<path fill="#A6A7AA" d="M542.922,318.725c-9.316,2.421-12.048,14.278-8.845,24.898c3.203,10.619,9.175,16.96,20.446,13.56
			c0,0,19.848-4.165,14.609-25.387C564.715,313.892,542.922,318.725,542.922,318.725"/>
		<path fill="none" stroke="#211F1F" stroke-width="2.296" stroke-miterlimit="10" d="M542.922,318.725
			c-9.316,2.421-12.048,14.278-8.845,24.898c3.203,10.619,9.175,16.96,20.446,13.56c0,0,19.848-4.165,14.609-25.387
			C564.715,313.892,542.922,318.725,542.922,318.725"/>
		<path fill="none" stroke="#211F1F" stroke-width="0.765" stroke-miterlimit="10" d="M545.768,318.307
			c0,0-8.383,11.68-5.266,23.377c3.117,11.698,8.108,16.401,14.021,15.499"/>
		<path fill="#739E6D" d="M564.803,324.712l0.759-4.754c0,0-10.916-13.407-21.792-2.297c0,0-6.113,5.295-6.705,17.688
			c-0.59,12.394,5.599,13.414,7.421,13.484c1.821,0.066,4.148-1.459,4.415-5.869C549.166,338.556,553.64,328.648,564.803,324.712"/>
		<path fill="none" stroke="#211F1F" stroke-width="2.296" stroke-miterlimit="10" d="M564.803,324.712l0.759-4.754
			c0,0-10.916-13.407-21.792-2.297c0,0-6.113,5.295-6.705,17.688c-0.59,12.394,5.599,13.414,7.421,13.484
			c1.821,0.066,4.148-1.459,4.415-5.869C549.166,338.556,553.64,328.648,564.803,324.712z"/>
		<path fill="#526D4D" d="M562.916,320.756c0,0-16.319,6.047-17.883,20.458c0,0-0.172,4.096-3.18,4.041c0,0,3.547,4.297,5.112-2.504
			c1.54-6.683,2.094-11.883,15.437-19.777L562.916,320.756z"/>
		<path fill="#211F1F" d="M543.567,340.731c0.381,1.264-0.074,2.517-1.014,2.8c-0.941,0.284-2.013-0.51-2.394-1.773
			c-0.381-1.261,0.073-2.516,1.014-2.799C542.114,338.675,543.187,339.469,543.567,340.731"/>
		<path fill="none" stroke="#211F1F" stroke-width="0.765" stroke-miterlimit="10" d="M530.953,369.263c0,0-0.01,15.26,3.353,19.212
			"/>
		<path fill="none" stroke="#211F1F" stroke-width="0.765" stroke-miterlimit="10" d="M529.007,367.822
			c0,0-4.168,11.021-0.353,20.59"/>
		<path fill="none" stroke="#211F1F" stroke-width="0.765" stroke-miterlimit="10" d="M600.235,383.86
			c0,0-5.025,12.961,2.561,22.115"/>
		<path fill="none" stroke="#211F1F" stroke-width="0.765" stroke-miterlimit="10" d="M596.976,407.354
			c-6.529-7.645-0.793-23.712-0.793-23.712s-9.292,11.115-4.775,21.987"/>
		<polygon fill="#0D8B7B" points="578.502,333.236 569.499,332.908 552.867,351.69 553.825,360.335 579.305,379.179 
			590.811,378.594 602.422,363.752 600.629,352.801 		"/>
		
			<polygon fill="none" stroke="#211F1F" stroke-width="2.296" stroke-linecap="round" stroke-linejoin="round" stroke-miterlimit="10" points="
			578.502,333.236 569.499,332.908 552.867,351.69 553.825,360.335 579.305,379.179 590.811,378.594 602.422,363.752 
			600.629,352.801 		"/>
		<path fill="none" stroke="#211F1F" stroke-width="2.296" stroke-miterlimit="10" d="M607.648,369.116c0,0-1.038,5.123,4.016,8.204
			c5.052,3.081,10.014,7.298,21.683,3.911"/>
		<polygon fill="#129F88" points="555.465,352.42 580.2,371.212 579.953,377.472 556.095,359.651 		"/>
		<polygon fill="#40BAA0" points="581.184,377.815 581.187,371.436 587.081,370.787 589.018,377.131 		"/>
		<path fill="none" stroke="#211F1F" stroke-width="2.296" stroke-miterlimit="10" d="M571.517,392.524
			c0,0,8.548-8.622,24.666-8.882"/>
		<path fill="none" stroke="#211F1F" stroke-width="2.296" stroke-miterlimit="10" d="M566.068,387.57c0,0,1.501-5.161,9.127-11.43"
			/>
		<path fill="#7B7B7C" d="M619.385,367.147c0,0-2.132-4.198-6.934-1.116c-4.803,3.085-3.396,7.885-0.765,9.77
			c2.63,1.887,12.073,7.622,18.832,4.56c6.759-3.062,5.347-6.419,4.469-8.424c-0.881-2.005-2.724-4.474-8.382-3.178
			C620.947,370.053,619.385,367.147,619.385,367.147"/>
		
			<line fill="none" stroke="#211F1F" stroke-width="0.765" stroke-miterlimit="10" x1="618.968" y1="363.729" x2="611.663" y2="377.32"/>
		
			<line fill="none" stroke="#211F1F" stroke-width="0.765" stroke-miterlimit="10" x1="622.845" y1="366.104" x2="616.71" y2="380.341"/>
		
			<line fill="none" stroke="#211F1F" stroke-width="0.765" stroke-miterlimit="10" x1="626.426" y1="366.339" x2="622.223" y2="382.218"/>
		<g opacity="0.5">
			<g>
				<defs>
					<rect id="SVGID_13_" x="626.786" y="366.035" width="3.41" height="16.404"/>
				</defs>
				<clipPath id="SVGID_14_">
					<use xlink:href="#SVGID_13_"  overflow="visible"/>
				</clipPath>
				<line clip-path="url(#SVGID_14_)" fill="#211F1F" x1="626.786" y1="382.439" x2="630.196" y2="366.035"/>
			</g>
		</g>
		<path fill="#98CA8F" d="M557.534,316.814c0,0-8.044,10.466-12.981,12.781c-4.938,2.314-5.045,6.058-5.045,6.058l0.491,3.453
			c0,0,2.092-2.401,3.717-1.122c1.627,1.282,2.421-11.341,17.66-18.412L557.534,316.814z"/>
		<path fill="#A6A7AA" d="M558.261,362.526c0,0-10.708-12.802-22.322-0.148l-5.881,6.597c0,0-1.466-3.092-4.567-0.105
			c0,0-2.674-4.445-5.363-4.518c0,0,0.924-9.312-5.086-8.895c-6.008,0.419-0.086,2.368,0.066,5.522
			c0.151,3.156-6.978-3.675-8.858-1.95c-1.882,1.723-6.24,6.729-0.745,12.563c5.493,5.834,9.554,6.026,9.554,6.026
			s0.696,5.844,6.103,6.079c5.407,0.237-0.042,4.282,10.551,4.021s9.383-7.366,13.173-9.844c3.787-2.477,6.896,0.588,9.937-4.065
			C557.859,369.16,561.295,368.389,558.261,362.526"/>
		<path fill="none" stroke="#211F1F" stroke-width="2.228" stroke-miterlimit="10" d="M558.261,362.526
			c0,0-10.708-12.802-22.322-0.148l-5.881,6.597c0,0-1.466-3.092-4.567-0.105c0,0-2.674-4.445-5.363-4.518
			c0,0,0.924-9.312-5.086-8.895c-6.008,0.419-0.086,2.368,0.066,5.522c0.151,3.156-6.978-3.675-8.858-1.95
			c-1.882,1.723-6.24,6.729-0.745,12.563c5.493,5.834,9.554,6.026,9.554,6.026s0.696,5.844,6.103,6.079
			c5.407,0.237-0.042,4.282,10.551,4.021s9.383-7.366,13.173-9.844c3.787-2.477,6.896,0.588,9.937-4.065
			C557.859,369.16,561.295,368.389,558.261,362.526z"/>
		<path fill="none" stroke="#211F1F" stroke-width="2.296" stroke-miterlimit="10" d="M520.719,364.5c0,0-5.77,3.2-5.222,13.671"/>
		<path fill="none" stroke="#211F1F" stroke-width="0.765" stroke-miterlimit="10" d="M526.247,369.154c0,0-4.556,9.29-1.913,16.107
			"/>
		<g opacity="0.8">
			<g>
				<defs>
					<rect id="SVGID_15_" x="506.457" y="359.026" width="42.331" height="14.959"/>
				</defs>
				<clipPath id="SVGID_16_">
					<use xlink:href="#SVGID_15_"  overflow="visible"/>
				</clipPath>
				
					<path clip-path="url(#SVGID_16_)" fill="none" stroke="#FFFFFF" stroke-width="2.296" stroke-linecap="round" stroke-linejoin="round" stroke-miterlimit="10" d="
					M507.643,362.498c0,0,4.123,2.129,6.832,2.288c2.709,0.157,7.113,3.325,7.855,5.051c0.741,1.727,4.561,1.982,4.561,1.982
					l3.618,0.98c0,0,9.485-13.616,17.095-12.527"/>
			</g>
		</g>
		<path fill="#A6A7AA" d="M578.01,336.162l-7.278-1.13l-13.263,16.783c0,0,20.144,15.592,20.614,14.835
			c0.472-0.756-8.671-10.119-1.153-16.264C584.447,344.243,578.01,336.162,578.01,336.162"/>
		<path fill="#211F1F" d="M564.196,351.054c-0.168,0-0.34,0.04-0.512,0.123c-0.173,0.084-0.313,0.191-0.421,0.326
			c-0.108,0.134-0.182,0.281-0.226,0.445c-0.043,0.163-0.054,0.327-0.032,0.495c0.021,0.169,0.074,0.327,0.154,0.478
			c0.079,0.15,0.187,0.279,0.318,0.385c0.127,0.104,0.27,0.175,0.427,0.218c0.16,0.045,0.321,0.058,0.487,0.037
			c0.167-0.021,0.329-0.069,0.481-0.147c0.155-0.079,0.282-0.18,0.383-0.306c0.051-0.063,0.096-0.136,0.135-0.216
			c0.038-0.082,0.068-0.169,0.093-0.26c0.022-0.09,0.037-0.182,0.042-0.272c0.007-0.09,0-0.174-0.018-0.252l0.192,0.155
			c0.004,0.175-0.02,0.343-0.071,0.504c-0.051,0.161-0.13,0.308-0.237,0.44c-0.119,0.148-0.264,0.268-0.432,0.358
			c-0.17,0.09-0.349,0.146-0.538,0.167c-0.19,0.021-0.378,0.008-0.562-0.04c-0.185-0.05-0.353-0.136-0.504-0.258
			c-0.155-0.124-0.274-0.271-0.364-0.438c-0.09-0.171-0.145-0.351-0.164-0.541c-0.021-0.19-0.004-0.377,0.049-0.562
			c0.052-0.185,0.139-0.353,0.261-0.504c0.104-0.131,0.234-0.239,0.387-0.325c0.153-0.087,0.313-0.142,0.479-0.167L564.196,351.054z
			"/>
		<path fill="#211F1F" d="M565.743,348.328c0.17-0.09,0.35-0.145,0.538-0.165c0.19-0.021,0.376-0.006,0.561,0.046
			s0.351,0.14,0.503,0.262c0.151,0.121,0.272,0.267,0.362,0.436c0.091,0.169,0.146,0.348,0.165,0.536
			c0.022,0.19,0.005,0.377-0.047,0.561c-0.053,0.186-0.139,0.353-0.259,0.502c-0.121,0.15-0.266,0.271-0.433,0.36
			c-0.169,0.09-0.348,0.145-0.537,0.163c-0.189,0.022-0.376,0.005-0.562-0.045c-0.185-0.051-0.353-0.137-0.504-0.259
			s-0.273-0.268-0.363-0.436c-0.09-0.169-0.145-0.348-0.165-0.537c-0.021-0.189-0.005-0.376,0.048-0.561
			c0.053-0.186,0.14-0.352,0.26-0.502C565.432,348.54,565.576,348.42,565.743,348.328 M565.213,349.237
			c-0.046,0.161-0.058,0.325-0.038,0.492c0.021,0.166,0.069,0.323,0.148,0.473c0.079,0.147,0.185,0.276,0.318,0.385
			c0.135,0.108,0.283,0.185,0.446,0.229c0.162,0.045,0.324,0.06,0.491,0.041c0.165-0.017,0.323-0.063,0.473-0.143
			c0.148-0.077,0.277-0.182,0.384-0.314c0.106-0.134,0.182-0.281,0.226-0.444c0.045-0.16,0.058-0.325,0.039-0.491
			c-0.021-0.166-0.068-0.323-0.148-0.473s-0.186-0.278-0.318-0.384s-0.279-0.183-0.442-0.229c-0.162-0.047-0.325-0.062-0.494-0.045
			c-0.168,0.018-0.325,0.065-0.474,0.145c-0.147,0.079-0.276,0.185-0.382,0.316C565.334,348.929,565.258,349.075,565.213,349.237"/>
		<path fill="#211F1F" d="M568.819,345.306c-0.169,0-0.34,0.042-0.512,0.123c-0.173,0.084-0.312,0.191-0.421,0.327
			c-0.108,0.132-0.182,0.281-0.226,0.444c-0.043,0.162-0.053,0.328-0.032,0.496c0.022,0.168,0.074,0.327,0.153,0.477
			c0.081,0.152,0.187,0.279,0.319,0.386c0.127,0.104,0.27,0.174,0.427,0.218c0.16,0.044,0.321,0.057,0.487,0.037
			c0.167-0.021,0.329-0.071,0.482-0.147c0.154-0.079,0.281-0.181,0.383-0.307c0.051-0.062,0.096-0.136,0.135-0.217
			c0.038-0.081,0.067-0.168,0.091-0.26c0.023-0.089,0.039-0.18,0.044-0.271c0.006-0.089,0-0.174-0.019-0.252l0.192,0.155
			c0.004,0.174-0.02,0.342-0.071,0.504c-0.052,0.16-0.13,0.309-0.237,0.439c-0.119,0.149-0.263,0.268-0.431,0.358
			c-0.17,0.091-0.35,0.147-0.54,0.169c-0.189,0.021-0.377,0.007-0.562-0.042s-0.353-0.135-0.505-0.257
			c-0.153-0.123-0.273-0.27-0.363-0.439c-0.089-0.171-0.144-0.35-0.164-0.541c-0.02-0.189-0.004-0.376,0.049-0.561
			s0.139-0.354,0.261-0.504c0.105-0.132,0.235-0.24,0.387-0.326c0.153-0.087,0.313-0.141,0.479-0.166L568.819,345.306z"/>
		<path fill="#211F1F" d="M570.366,342.581c0.17-0.09,0.35-0.146,0.539-0.166s0.376-0.006,0.56,0.047
			c0.184,0.052,0.352,0.139,0.503,0.261s0.272,0.268,0.362,0.437s0.146,0.349,0.166,0.537c0.021,0.189,0.006,0.376-0.047,0.559
			c-0.054,0.186-0.139,0.354-0.259,0.502c-0.121,0.15-0.267,0.271-0.433,0.36c-0.169,0.089-0.349,0.146-0.538,0.164
			c-0.188,0.021-0.376,0.005-0.562-0.046c-0.184-0.05-0.352-0.136-0.504-0.258c-0.151-0.123-0.272-0.268-0.362-0.436
			c-0.09-0.169-0.146-0.348-0.165-0.538c-0.022-0.188-0.006-0.375,0.047-0.561c0.053-0.185,0.139-0.352,0.26-0.5
			C570.055,342.792,570.198,342.672,570.366,342.581 M569.837,343.488c-0.046,0.163-0.059,0.327-0.039,0.493s0.07,0.324,0.148,0.473
			c0.079,0.148,0.186,0.277,0.319,0.385s0.282,0.185,0.445,0.23c0.161,0.044,0.325,0.059,0.492,0.041
			c0.164-0.017,0.322-0.064,0.473-0.142c0.147-0.078,0.275-0.183,0.384-0.316c0.105-0.134,0.181-0.281,0.226-0.443
			c0.044-0.162,0.057-0.325,0.038-0.491c-0.021-0.165-0.068-0.324-0.148-0.473c-0.08-0.15-0.186-0.278-0.317-0.384
			c-0.133-0.106-0.28-0.183-0.442-0.23c-0.162-0.047-0.326-0.061-0.495-0.045c-0.168,0.018-0.326,0.066-0.474,0.146
			c-0.147,0.078-0.275,0.184-0.382,0.316S569.882,343.328,569.837,343.488"/>
		<path fill="#211F1F" d="M572.812,339.543c0.17-0.09,0.35-0.147,0.537-0.167c0.191-0.021,0.377-0.005,0.561,0.046
			c0.186,0.053,0.353,0.14,0.504,0.261c0.151,0.122,0.272,0.268,0.363,0.438c0.09,0.167,0.145,0.347,0.164,0.536
			c0.022,0.189,0.005,0.376-0.047,0.561c-0.053,0.185-0.138,0.352-0.259,0.501c-0.121,0.151-0.266,0.271-0.433,0.36
			c-0.169,0.089-0.348,0.144-0.537,0.164s-0.376,0.006-0.562-0.045c-0.186-0.052-0.353-0.137-0.504-0.26
			c-0.152-0.121-0.272-0.267-0.363-0.436c-0.09-0.17-0.145-0.348-0.165-0.537c-0.021-0.188-0.004-0.376,0.047-0.561
			c0.054-0.184,0.14-0.352,0.261-0.502C572.5,339.754,572.645,339.633,572.812,339.543 M572.281,340.45
			c-0.046,0.162-0.058,0.326-0.037,0.491c0.02,0.167,0.068,0.324,0.147,0.473s0.185,0.278,0.318,0.385
			c0.136,0.109,0.283,0.186,0.445,0.23c0.163,0.045,0.325,0.059,0.492,0.042c0.165-0.017,0.323-0.064,0.473-0.144
			c0.148-0.078,0.277-0.183,0.384-0.315c0.106-0.132,0.182-0.281,0.226-0.442c0.045-0.161,0.058-0.326,0.039-0.492
			c-0.021-0.165-0.068-0.322-0.149-0.473c-0.079-0.149-0.186-0.276-0.317-0.385c-0.133-0.105-0.279-0.181-0.442-0.229
			c-0.162-0.046-0.326-0.062-0.494-0.044c-0.168,0.017-0.325,0.064-0.474,0.144c-0.147,0.078-0.276,0.186-0.382,0.316
			C572.401,340.142,572.327,340.287,572.281,340.45"/>
		<polygon fill="#211F1F" points="577.9,337.747 574.47,337.996 576.358,339.514 576.248,339.653 574.021,337.861 577.436,337.603 
			575.519,336.06 575.629,335.921 		"/>
		<g opacity="0.5">
			<g>
				<defs>
					<rect id="SVGID_17_" x="505.584" y="365.654" width="73.415" height="25.311"/>
				</defs>
				<clipPath id="SVGID_18_">
					<use xlink:href="#SVGID_17_"  overflow="visible"/>
				</clipPath>
				<path clip-path="url(#SVGID_18_)" fill="#211F1F" d="M505.624,366.436c0,0-0.466,3.295,1.808,5.986
					c2.272,2.693,6.146,3.348,7.626,5.197c1.48,1.85,2.272,6.809,5.086,5.96c2.816-0.85,4.788,4.672,8.772,3.624
					c3.984-1.049,11.491-0.12,12.621-4.662c1.129-4.54,6.621-7.055,9.743-6.041c3.122,1.013,4.532,1.793,5.879,4.22
					c1.347,2.426,6.228,6.463,9.285,8.095c3.057,1.632,6.935,2.149,6.935,2.149l5.62-4.726c0,0-12.224-4.665-13.273-9.01
					c-1.049-4.345-6.469-6.532-8.163-7.565c-1.693-1.033-12.228-0.539-14.784,2.804c-2.559,3.342-6.73,8.551-9.592,7.361
					c-2.861-1.188-7.185-1.312-9.578-1.336c-2.395-0.021-0.768-6.125-5.425-6.904c-4.656-0.78-5.278-0.297-6.111-2.037
					C511.241,367.812,508.351,364.023,505.624,366.436"/>
			</g>
		</g>
		<polygon fill="#018071" points="543.208,366.779 540.929,366.462 539.757,367.348 544.094,367.951 544.698,363.612 543.525,364.5 
					"/>
		<polygon fill="#0D8B7B" points="541.245,364.182 543.525,364.5 544.697,363.613 540.359,363.01 539.757,367.349 540.929,366.462 
					"/>
		<polygon fill="#0D8B7B" points="545.94,362.673 541.692,362.088 541.595,362.794 545.134,363.283 		"/>
		<polygon fill="#018071" points="545.94,362.673 545.346,366.92 544.64,366.821 545.134,363.283 		"/>
		<polygon fill="#0D8B7B" points="538.514,368.288 539.107,364.042 539.813,364.141 539.318,367.678 		"/>
		<polygon fill="#018071" points="538.514,368.288 542.762,368.875 542.859,368.169 539.318,367.678 		"/>
		<g opacity="0.5">
			<g>
				<defs>
					<rect id="SVGID_19_" x="571.517" y="382.028" width="54.383" height="25.89"/>
				</defs>
				<clipPath id="SVGID_20_">
					<use xlink:href="#SVGID_19_"  overflow="visible"/>
				</clipPath>
				<path clip-path="url(#SVGID_20_)" fill="#211F1F" d="M620.181,382.028c0,0-1.101,2.7-3.727,6.718
					c-2.629,4.017-9.697,10.142-12.863,8.025c-3.168-2.116-1.985-2.326-7.624-1.088s-9.547-0.724-9.586-1.055l-7.817-7.323
					l-7.047,5.218l10.854,9.888l12.736,5.507l5.882-1.055l4.343-2.507l10.999-9.037l4.172-5.791l2.376-5.14l3.021,0.253
					L620.181,382.028z"/>
			</g>
		</g>
		<g opacity="0.8">
			<g>
				<defs>
					<rect id="SVGID_21_" x="575.485" y="380.34" width="33.678" height="14.528"/>
				</defs>
				<clipPath id="SVGID_22_">
					<use xlink:href="#SVGID_21_"  overflow="visible"/>
				</clipPath>
				
					<path clip-path="url(#SVGID_22_)" fill="none" stroke="#FFFFFF" stroke-width="2.296" stroke-linecap="round" stroke-linejoin="round" stroke-miterlimit="10" d="
					M576.669,393.683c0,0,3.796-4.278,12.964-3.91c9.166,0.369,15.378-3.832,18.346-8.247"/>
			</g>
		</g>
		<polygon fill="#565757" points="599.887,354.704 587.081,370.787 589.386,378.348 600.903,362.728 		"/>
		<path fill="#E5E5E4" d="M528.565,418.47c-6.876,0-14.719-1.947-23.312-5.784c-2.67-1.195-5.093-1.773-7.406-1.773
			c-3.46,0-6.335,1.263-9.663,2.727c-3.681,1.614-7.851,3.446-12.995,3.446c-6.318,0.001-13.134-2.795-20.831-8.548
			c-15.373-11.486-11.094-20.854-7.318-29.118c3.958-8.664,7.694-16.842-3.826-32.533c-17.05-23.221-1.948-38.145,8.045-48.02
			c7.729-7.635,11.156-11.725,9.212-16.224c-1.788-4.136-4.125-6.593-6.939-7.3c-0.626-0.157-1.297-0.236-1.997-0.236
			c-4.846,0-9.696,3.708-9.744,3.745c-0.724,0.568-1.63,0.882-2.553,0.882c-1.264,0-2.438-0.567-3.224-1.556
			c-1.408-1.778-1.109-4.374,0.666-5.784c0.286-0.227,7.062-5.521,14.87-5.521c1.37,0,2.71,0.164,3.986,0.484
			c5.43,1.363,9.633,5.406,12.491,12.02c4.393,10.154-3.774,18.225-10.979,25.346c-10.755,10.626-20.041,19.802-7.199,37.291
			c14.381,19.586,8.775,31.858,4.684,40.819c-3.64,7.965-5.3,11.597,4.754,19.109c6.289,4.699,11.324,6.889,15.845,6.889
			c3.52,0,6.542-1.327,9.742-2.73c3.66-1.608,7.809-3.431,12.964-3.431c3.488,0,7.013,0.818,10.775,2.497
			c7.396,3.304,14.307,5.049,19.983,5.049c3.326,0,6.221-0.585,8.6-1.744c4.221-2.051,7.096-6.017,8.546-11.791
			c5.051-20.109,21.108-28.706,21.789-29.062c0.588-0.308,1.247-0.468,1.903-0.468c1.542,0,2.94,0.846,3.652,2.21
			c0.51,0.974,0.609,2.088,0.279,3.137c-0.327,1.05-1.047,1.908-2.021,2.417c-0.126,0.069-13.515,7.423-17.619,23.772
			c-2.07,8.244-6.421,14.027-12.931,17.189c-1.135,0.552-2.339,1.021-3.579,1.395C534.576,418.066,531.666,418.47,528.565,418.47"/>
		<path fill="#211F1F" d="M451.548,268.05c1.213,0,2.455,0.136,3.7,0.449c5.057,1.269,8.992,5.086,11.698,11.343
			c4.074,9.419-3.45,16.854-10.727,24.044c-10.677,10.551-20.762,20.516-7.319,38.824c13.975,19.032,8.532,30.942,4.56,39.639
			c-3.67,8.032-5.692,12.456,5.121,20.535c7.183,5.367,12.28,7.123,16.55,7.123c3.766,0,6.885-1.368,10.215-2.83
			c3.644-1.601,7.587-3.331,12.492-3.331c3.016,0,6.396,0.654,10.294,2.396c7.648,3.415,14.631,5.15,20.463,5.15
			c3.481,0,6.553-0.616,9.116-1.862c4.547-2.209,7.632-6.436,9.171-12.562c4.925-19.612,20.533-27.961,21.193-28.307
			c0.436-0.228,0.901-0.334,1.358-0.334c1.062,0,2.086,0.574,2.61,1.577c0.752,1.44,0.193,3.218-1.244,3.97
			c-0.133,0.069-13.952,7.553-18.215,24.527c-1.981,7.891-6.121,13.414-12.305,16.418c-1.082,0.525-2.218,0.968-3.403,1.325
			c-2.543,0.768-5.324,1.15-8.312,1.15c-6.664,0-14.37-1.903-22.831-5.683c-3.021-1.35-5.577-1.876-7.888-1.876
			c-3.704,0-6.78,1.351-10.137,2.826c-3.693,1.62-7.624,3.349-12.522,3.349c-5.28,0-11.686-2.008-20.126-8.315
			c-14.614-10.919-10.718-19.445-6.951-27.69c3.923-8.587,7.98-17.466-3.95-33.715c-16.447-22.401-2.36-36.322,7.926-46.486
			c7.403-7.315,11.821-12.075,9.464-17.526c-1.943-4.49-4.546-7.174-7.732-7.975c-0.755-0.189-1.52-0.272-2.283-0.272
			c-5.271,0-10.409,3.947-10.47,3.994c-0.541,0.427-1.187,0.635-1.828,0.635c-0.864,0-1.721-0.381-2.302-1.111
			c-1.01-1.273-0.796-3.123,0.476-4.132C437.723,273.068,444.142,268.05,451.548,268.05 M451.548,265.699
			c-8.062,0-14.849,5.18-15.596,5.771c-2.29,1.817-2.674,5.153-0.861,7.439c1.01,1.271,2.521,2,4.146,2
			c1.186,0,2.352-0.403,3.284-1.138c0.03-0.024,4.598-3.488,9.014-3.488c0.603,0,1.178,0.066,1.71,0.2
			c2.441,0.613,4.509,2.844,6.146,6.628c1.656,3.831-1.619,7.666-8.959,14.918c-10.28,10.16-25.817,25.514-8.167,49.553
			c11.112,15.135,7.514,23.009,3.705,31.346c-3.765,8.24-8.449,18.497,7.684,30.553c7.907,5.908,14.951,8.78,21.534,8.78
			c5.392,0,9.682-1.884,13.468-3.545c3.211-1.41,5.979-2.627,9.191-2.627c2.146,0,4.412,0.545,6.926,1.67
			c8.747,3.905,16.752,5.888,23.793,5.888c3.215,0,6.241-0.421,8.992-1.25c1.299-0.394,2.562-0.884,3.751-1.462
			c6.836-3.322,11.399-9.364,13.559-17.961c3.967-15.794,16.913-22.956,17.043-23.028c2.565-1.34,3.57-4.544,2.218-7.131
			c-0.915-1.753-2.715-2.841-4.694-2.841c-0.845,0-1.691,0.207-2.446,0.601c-0.702,0.368-17.211,9.208-22.387,29.82
			c-1.361,5.421-4.026,9.129-7.918,11.019c-2.22,1.08-4.941,1.627-8.088,1.627c-5.513,0-12.257-1.711-19.502-4.946
			c-3.917-1.75-7.599-2.601-11.255-2.601c-5.402,0-9.672,1.875-13.438,3.528c-3.218,1.413-5.996,2.634-9.269,2.634
			c-4.254,0-9.065-2.115-15.143-6.655c-9.292-6.943-7.957-9.864-4.391-17.672c3.979-8.711,9.989-21.867-4.801-42.011
			c-12.239-16.669-3.716-25.092,7.075-35.757c7.475-7.388,15.945-15.759,11.234-26.651c-3.013-6.965-7.482-11.236-13.286-12.69
			C454.452,265.873,453.014,265.699,451.548,265.699"/>
		
			<path fill="none" stroke="#211F1F" stroke-width="1.14" stroke-linecap="round" stroke-linejoin="round" stroke-miterlimit="10" d="
			M561.354,371.945c0,0,4.724-0.046,5.614,5.503"/>
		
			<path fill="none" stroke="#211F1F" stroke-width="1.14" stroke-linecap="round" stroke-linejoin="round" stroke-miterlimit="10" d="
			M554.823,378.041c0,0,5.546,0.041,7.432,4.77"/>
		
			<path fill="none" stroke="#211F1F" stroke-width="1.14" stroke-linecap="round" stroke-linejoin="round" stroke-miterlimit="10" d="
			M550.924,384.256c0,0,4.798-2.048,7.622,3.395"/>
		
			<path fill="none" stroke="#211F1F" stroke-width="1.14" stroke-linecap="round" stroke-linejoin="round" stroke-miterlimit="10" d="
			M565.484,368.957c0,0,5.915-0.562,5.453,5.569"/>
		
			<path fill="none" stroke="#211F1F" stroke-width="1.14" stroke-linecap="round" stroke-linejoin="round" stroke-miterlimit="10" d="
			M547.546,390.969c0,0,6.235-2.813,7.906,3.233"/>
		
			<path fill="none" stroke="#211F1F" stroke-width="1.14" stroke-linecap="round" stroke-linejoin="round" stroke-miterlimit="10" d="
			M545.926,396.216c0,0,5.565-2.302,7.628,3.178"/>
		
			<path fill="none" stroke="#211F1F" stroke-width="1.14" stroke-linecap="round" stroke-linejoin="round" stroke-miterlimit="10" d="
			M543.077,402.554c0,0,7.194-3.033,7.884,3.53"/>
		
			<path fill="none" stroke="#211F1F" stroke-width="1.14" stroke-linecap="round" stroke-linejoin="round" stroke-miterlimit="10" d="
			M540.596,406.238c0,0,4.202,0.493,5.245,5.477"/>
		
			<path fill="none" stroke="#211F1F" stroke-width="1.14" stroke-linecap="round" stroke-linejoin="round" stroke-miterlimit="10" d="
			M534.663,409.404c0,0,4.362,6.476,2.999,7.787"/>
		
			<path fill="none" stroke="#211F1F" stroke-width="1.14" stroke-linecap="round" stroke-linejoin="round" stroke-miterlimit="10" d="
			M527.986,411.376c0,0,3.128,5.312-0.408,6.844"/>
		
			<path fill="none" stroke="#211F1F" stroke-width="1.14" stroke-linecap="round" stroke-linejoin="round" stroke-miterlimit="10" d="
			M522.206,410.777c0,0,0.625,4.407-1.956,6.293"/>
		
			<path fill="none" stroke="#211F1F" stroke-width="1.14" stroke-linecap="round" stroke-linejoin="round" stroke-miterlimit="10" d="
			M515.411,408.452c0,0,1.259,3.707-2.243,6.061"/>
		
			<path fill="none" stroke="#211F1F" stroke-width="1.14" stroke-linecap="round" stroke-linejoin="round" stroke-miterlimit="10" d="
			M508.132,406.241c0,0,1.068,3.613-2.398,5.37"/>
		
			<line fill="none" stroke="#211F1F" stroke-width="1.14" stroke-linecap="round" stroke-linejoin="round" stroke-miterlimit="10" x1="500.061" y1="403.967" x2="499.584" y2="409.843"/>
		
			<path fill="none" stroke="#211F1F" stroke-width="1.14" stroke-linecap="round" stroke-linejoin="round" stroke-miterlimit="10" d="
			M494.447,404.132c0,0-1.269,4.226,0.702,6.687"/>
		
			<path fill="none" stroke="#211F1F" stroke-width="1.14" stroke-linecap="round" stroke-linejoin="round" stroke-miterlimit="10" d="
			M489.097,405.613c0,0-0.659,4.526,1.597,5.292"/>
		
			<path fill="none" stroke="#211F1F" stroke-width="1.14" stroke-linecap="round" stroke-linejoin="round" stroke-miterlimit="10" d="
			M483.115,408.257c0,0-3.195,2.983,0.875,6.291"/>
		
			<path fill="none" stroke="#211F1F" stroke-width="1.14" stroke-linecap="round" stroke-linejoin="round" stroke-miterlimit="10" d="
			M472.717,409.821c0,0-1.668,6.145,1.483,6.06"/>
		
			<path fill="none" stroke="#211F1F" stroke-width="1.14" stroke-linecap="round" stroke-linejoin="round" stroke-miterlimit="10" d="
			M467.447,407.904c0,0-3.025,0.042-3.187,5.334"/>
		
			<path fill="none" stroke="#211F1F" stroke-width="1.14" stroke-linecap="round" stroke-linejoin="round" stroke-miterlimit="10" d="
			M460.129,404.007c0,0-3.28,3.377-2.286,6.674"/>
		
			<path fill="none" stroke="#211F1F" stroke-width="1.14" stroke-linecap="round" stroke-linejoin="round" stroke-miterlimit="10" d="
			M454.436,399.361c0,0-3.402,0.283-5.157,4.651"/>
		
			<path fill="none" stroke="#211F1F" stroke-width="1.14" stroke-linecap="round" stroke-linejoin="round" stroke-miterlimit="10" d="
			M444.776,393.457c0,0,4.569-2.504,6.115,0.532"/>
		
			<path fill="none" stroke="#211F1F" stroke-width="1.14" stroke-linecap="round" stroke-linejoin="round" stroke-miterlimit="10" d="
			M445.626,386.042c0,0,4.276-4.87,6.022,0.479"/>
		
			<path fill="none" stroke="#211F1F" stroke-width="1.14" stroke-linecap="round" stroke-linejoin="round" stroke-miterlimit="10" d="
			M448.757,376.935c0,0,5.667-4.629,6.472,1.376"/>
		
			<path fill="none" stroke="#211F1F" stroke-width="1.14" stroke-linecap="round" stroke-linejoin="round" stroke-miterlimit="10" d="
			M451.36,370.473c0,0,3.538-5.563,6.12,0.325"/>
		
			<path fill="none" stroke="#211F1F" stroke-width="1.14" stroke-linecap="round" stroke-linejoin="round" stroke-miterlimit="10" d="
			M451.363,360.278c0,0,1.261-8.831,5.588-1.687"/>
		
			<path fill="none" stroke="#211F1F" stroke-width="1.14" stroke-linecap="round" stroke-linejoin="round" stroke-miterlimit="10" d="
			M446.992,350.384c0,0,1.201-4.463,5.781-1.743"/>
		
			<path fill="none" stroke="#211F1F" stroke-width="1.14" stroke-linecap="round" stroke-linejoin="round" stroke-miterlimit="10" d="
			M443.291,343.727c0,0,0.022-3.569,5.608-1.017"/>
		
			<path fill="none" stroke="#211F1F" stroke-width="1.14" stroke-linecap="round" stroke-linejoin="round" stroke-miterlimit="10" d="
			M438.481,335.053c0,0-0.154-6.188,4.833-1.458"/>
		
			<path fill="none" stroke="#211F1F" stroke-width="1.14" stroke-linecap="round" stroke-linejoin="round" stroke-miterlimit="10" d="
			M436.336,325.136c0,0,3.599-4.694,6.169-0.077"/>
		
			<path fill="none" stroke="#211F1F" stroke-width="1.14" stroke-linecap="round" stroke-linejoin="round" stroke-miterlimit="10" d="
			M440.198,313.865c0,0,3.281-4.271,4.216,3.168"/>
		
			<path fill="none" stroke="#211F1F" stroke-width="1.14" stroke-linecap="round" stroke-linejoin="round" stroke-miterlimit="10" d="
			M444.799,307.378c0,0,3.456-2.117,5.301,2.808"/>
		
			<path fill="none" stroke="#211F1F" stroke-width="1.14" stroke-linecap="round" stroke-linejoin="round" stroke-miterlimit="10" d="
			M451.179,300.601c0,0,5.727-2.589,5.954,2.381"/>
		
			<path fill="none" stroke="#211F1F" stroke-width="1.14" stroke-linecap="round" stroke-linejoin="round" stroke-miterlimit="10" d="
			M463.431,296.175c1.124-3.73-4.316-4.002-4.316-4.002"/>
		
			<path fill="none" stroke="#211F1F" stroke-width="1.14" stroke-linecap="round" stroke-linejoin="round" stroke-miterlimit="10" d="
			M462.169,285.575c0,0,2.976-5.772,5.758,1.579"/>
		
			<path fill="none" stroke="#211F1F" stroke-width="1.14" stroke-linecap="round" stroke-linejoin="round" stroke-miterlimit="10" d="
			M464.256,274.986c-6.582-6.375-5.36,2.662-5.36,2.662"/>
		
			<path fill="none" stroke="#211F1F" stroke-width="1.14" stroke-linecap="round" stroke-linejoin="round" stroke-miterlimit="10" d="
			M453.817,274.202c0,0-3.071-6.02,2.403-5.422"/>
		
			<path fill="none" stroke="#211F1F" stroke-width="1.14" stroke-linecap="round" stroke-linejoin="round" stroke-miterlimit="10" d="
			M448.435,268.181c0,0-5.486,3.456,1.087,5.936"/>
		
			<path fill="none" stroke="#211F1F" stroke-width="1.14" stroke-linecap="round" stroke-linejoin="round" stroke-miterlimit="10" d="
			M440.562,271.259c0,0-2.304,4.577,1.751,5.81"/>
		<g display="none" opacity="0.5">
			<g display="inline">
				<defs>
					<rect id="SVGID_23_" x="438.305" y="267.748" width="134.916" height="148.885"/>
				</defs>
				<clipPath id="SVGID_24_">
					<use xlink:href="#SVGID_23_"  overflow="visible"/>
				</clipPath>
				
					<path clip-path="url(#SVGID_24_)" fill="none" stroke="#211F1F" stroke-width="2.28" stroke-linecap="round" stroke-linejoin="round" stroke-miterlimit="10" d="
					M572.044,369.903c0,0-17.71,11.774-21.956,26.792c-4.247,15.02-13.451,19.417-20.827,18.686
					c-7.376-0.732-30.329-12.68-40.393-7.545s-13.747,6.788-23.021,2.711c-9.274-4.076-19.429-8.46-17.138-23.141
					c2.293-14.68,9.076-10.182,6.855-28.396c-2.22-18.215-16.229-18.237-16.084-33.712c0,0,3.191-14.872,21.285-27.646
					c0,0,8.614-5.512,3.524-18.309c0,0-9.516-14.084-22.393-9.504"/>
			</g>
		</g>
		<path display="none" fill="#A6A7AA" d="M440.128,266.011l-10.156-148.817c0.189-1.008-0.541-31.952-50.768-31.952
			c-48.653,0-50.97,30.793-50.808,31.729l-10.171,149.041c-0.094,0.771-0.159,1.547-0.159,2.331
			c0,18.772,27.359,33.988,61.11,33.988c33.753,0,61.111-15.216,61.111-33.988C440.287,267.558,440.223,266.782,440.128,266.011"/>
		<path display="none" fill="none" stroke="#211F1F" stroke-width="5" stroke-miterlimit="10" d="M440.128,266.011l-10.156-148.817
			c0.189-1.008-0.541-31.952-50.768-31.952c-48.653,0-50.97,30.793-50.808,31.729l-10.171,149.041
			c-0.094,0.771-0.159,1.547-0.159,2.331c0,18.772,27.359,33.988,61.11,33.988c33.753,0,61.111-15.216,61.111-33.988
			C440.287,267.558,440.223,266.782,440.128,266.011z"/>
		<path display="none" fill="#A6A7AA" d="M446.805,299.445l-11.262-168.66c0.21-1.142-0.601-36.212-56.286-36.212
			c-53.941,0-56.51,34.899-56.331,35.959L311.65,299.445c-0.104,0.875-0.177,1.753-0.177,2.642
			c0,21.274,30.335,38.521,67.753,38.521c37.419,0,67.755-17.247,67.755-38.521C446.981,301.198,446.908,300.32,446.805,299.445"/>
		<path display="none" fill="none" stroke="#211F1F" stroke-width="5" stroke-miterlimit="10" d="M446.805,299.445l-11.262-168.66
			c0.21-1.142-0.601-36.212-56.286-36.212c-53.941,0-56.51,34.899-56.331,35.959L311.65,299.445
			c-0.104,0.875-0.177,1.753-0.177,2.642c0,21.274,30.335,38.521,67.753,38.521c37.419,0,67.755-17.247,67.755-38.521
			C446.981,301.198,446.908,300.32,446.805,299.445z"/>
		<path display="none" fill="#D0D0D1" d="M443.925,301.302c0,19.225-28.907,34.811-64.567,34.811
			c-35.659,0-64.567-15.586-64.567-34.811c0-19.226,28.908-34.812,64.567-34.812C415.018,266.49,443.925,282.076,443.925,301.302"/>
		<path display="none" fill="#211F1F" d="M438.038,302.761c0,16.723-26.279,30.28-58.696,30.28
			c-32.418,0-58.698-13.558-58.698-30.28c0-16.724,26.28-30.28,58.698-30.28C411.759,272.48,438.038,286.037,438.038,302.761"/>
		<path display="none" fill="#7F7777" d="M365.266,100.744v166.263c0,0-38.66,1.548-47.201,27.858l11.453-167.428
			C329.518,127.438,333.363,106.789,365.266,100.744"/>
		<path display="none" fill="#D7D2D1" d="M347.224,106.905l-6.103,165.575c0,0,37.387-15.154,77.125,1.035l-2.907-166.61
			C415.339,106.905,384.351,89.877,347.224,106.905"/>
		<path display="none" fill="#211F1F" d="M422.13,291.815c0,10.11-19.23,18.305-42.954,18.305c-23.722,0-42.954-8.194-42.954-18.305
			c0-10.107,19.232-18.303,42.954-18.303C402.899,273.513,422.13,281.708,422.13,291.815"/>
		
			<ellipse display="none" fill="none" stroke="#D0D0D1" stroke-width="5" stroke-miterlimit="10" cx="379.176" cy="291.815" rx="42.954" ry="18.305"/>
		<path display="none" fill="#D0D0D1" d="M353.432,285.321c0,0-17.541,7.996-2.58,14.444c14.961,6.449,41.014,6.707,54.169,1.536
			c0,0-30.104,6.633-51.933-6.184C346.613,291.317,353.432,285.321,353.432,285.321"/>
		<path display="none" fill="#211F1F" d="M398.127,288.932c0,3.136-8.257,5.676-18.443,5.676s-18.443-2.54-18.443-5.676
			c0-3.134,8.257-5.674,18.443-5.674S398.127,285.798,398.127,288.932"/>
		
			<ellipse display="none" fill="none" stroke="#D0D0D1" stroke-width="5" stroke-miterlimit="10" cx="379.684" cy="288.932" rx="18.443" ry="5.676"/>
		<line display="none" fill="#211F1F" x1="414.326" y1="302.33" x2="425.25" y2="321.623"/>
		
			<line display="none" fill="none" stroke="#D0D0D1" stroke-width="5" stroke-miterlimit="10" x1="414.326" y1="302.33" x2="425.25" y2="321.623"/>
		<line display="none" fill="#211F1F" x1="342.433" y1="301.302" x2="330.469" y2="319.529"/>
		
			<line display="none" fill="none" stroke="#D0D0D1" stroke-width="5" stroke-miterlimit="10" x1="342.433" y1="301.302" x2="330.469" y2="319.529"/>
		<line display="none" fill="#211F1F" x1="379.176" y1="310.12" x2="379.342" y2="333.041"/>
		
			<line display="none" fill="none" stroke="#D0D0D1" stroke-width="5" stroke-miterlimit="10" x1="379.176" y1="310.12" x2="379.342" y2="333.041"/>
		<g display="none" opacity="0.3">
			<g display="inline">
				<defs>
					<rect id="SVGID_25_" x="326.514" y="286.475" width="105.655" height="40.443"/>
				</defs>
				<clipPath id="SVGID_26_">
					<use xlink:href="#SVGID_25_"  overflow="visible"/>
				</clipPath>
				<path clip-path="url(#SVGID_26_)" d="M426.938,287.83c2.158,14.931-21.893,25.178-46.871,25.178
					c-25.777,0-52.028-6.82-46.954-26.533c-4.2,3.909-6.601,8.405-6.601,13.19c0,15.052,23.651,27.253,52.828,27.253
					c29.175,0,52.827-12.201,52.827-27.253C432.169,295.424,430.29,291.409,426.938,287.83"/>
			</g>
		</g>
		<polygon display="none" fill="#018071" points="390.526,206.132 380.363,216.295 380.363,225.464 399.695,206.132 
			380.363,186.799 380.363,195.969 		"/>
		<polygon display="none" fill="#0D8B7B" points="370.2,206.132 380.363,195.969 380.363,186.799 361.031,206.132 380.363,225.464 
			380.363,216.295 		"/>
		<polygon display="none" fill="#0D8B7B" points="380.363,177.067 361.451,196.014 364.604,199.161 380.363,183.374 		"/>
		<polygon display="none" fill="#018071" points="380.363,177.067 399.275,196.014 396.121,199.161 380.363,183.374 		"/>
		<polygon display="none" fill="#0D8B7B" points="380.363,235.196 361.451,216.25 364.604,213.102 380.363,228.889 		"/>
		<polygon display="none" fill="#018071" points="380.363,235.196 399.275,216.25 396.121,213.102 380.363,228.889 		"/>
		<path display="none" fill="none" stroke="#211F1F" stroke-miterlimit="10" d="M399.274,96.391l0.421,42.159
			c0,0,21.939-0.591,37.362,14.923"/>
		<path display="none" fill="none" stroke="#A6A7AA" stroke-miterlimit="10" d="M398.196,99.021l0.402,40.412
			c0,0,18.547-0.754,34.99,11.821"/>
		<polyline display="none" fill="none" stroke="#211F1F" stroke-miterlimit="10" points="425.837,145.185 432.168,281.271 
			427.311,285.321 		"/>
		<path display="none" fill="none" stroke="#211F1F" stroke-miterlimit="10" d="M334.097,108.662l-3.629,89.142
			c0,0,1.296-1.991,8.175-1.991l-4.087,79.87l4.087,5.269"/>
		<line display="none" fill="none" stroke="#211F1F" stroke-miterlimit="10" x1="438.038" y1="302.761" x2="446.981" y2="302.087"/>
		<line display="none" fill="none" stroke="#211F1F" stroke-miterlimit="10" x1="314.791" y1="304.917" x2="321.137" y2="306.696"/>
		<line display="none" fill="none" stroke="#211F1F" stroke-miterlimit="10" x1="417.012" y1="325.983" x2="419.788" y2="330.29"/>
		<line display="none" fill="none" stroke="#211F1F" stroke-miterlimit="10" x1="393.115" y1="332.201" x2="394.188" y2="337.512"/>
		<line display="none" fill="none" stroke="#211F1F" stroke-miterlimit="10" x1="364.432" y1="332.054" x2="363.062" y2="336.824"/>
		<line display="none" fill="none" stroke="#211F1F" stroke-miterlimit="10" x1="344.812" y1="327.247" x2="341.121" y2="331.321"/>
		<line display="none" fill="none" stroke="#211F1F" stroke-miterlimit="10" x1="328.388" y1="317.8" x2="323.51" y2="320.487"/>
		<line display="none" fill="none" stroke="#211F1F" stroke-miterlimit="10" x1="427.495" y1="320.072" x2="432.88" y2="322.38"/>
		<polygon display="none" fill="#A6A7AA" points="317.116,221.26 287.914,221.26 287.914,209.246 317.885,209.246 		"/>
		<polygon display="none" fill="none" stroke="#211F1F" stroke-width="4.315" stroke-miterlimit="10" points="317.116,221.26 
			287.914,221.26 287.914,209.246 317.885,209.246 		"/>
		<rect x="290.32" y="214.006" display="none" fill="#7F7777" width="36.361" height="4.831"/>
		<polygon display="none" fill="#A6A7AA" points="441.663,221.26 470.865,221.26 470.865,209.246 440.895,209.246 		"/>
		<polygon display="none" fill="none" stroke="#211F1F" stroke-width="4.315" stroke-miterlimit="10" points="441.663,221.26 
			470.865,221.26 470.865,209.246 440.895,209.246 		"/>
		<rect x="433.733" y="214.099" display="none" fill="#A6A7AA" width="34.726" height="4.737"/>
		<polygon display="none" fill="#A6A7AA" points="286.054,261.438 182.156,261.438 192.474,171.499 296.372,171.499 		"/>
		<polygon display="none" fill="none" stroke="#211F1F" stroke-width="5" stroke-miterlimit="10" points="286.054,261.438 
			182.156,261.438 192.474,171.499 296.372,171.499 		"/>
		<polygon display="none" fill="#211F1F" points="283.271,181.025 204.504,181.025 195.577,250.844 273.641,250.844 		"/>
		<line display="none" fill="none" stroke="#A6A7AA" stroke-miterlimit="10" x1="200.04" y1="188.248" x2="286.366" y2="188.248"/>
		<line display="none" fill="none" stroke="#A6A7AA" stroke-miterlimit="10" x1="200.04" y1="197.189" x2="286.366" y2="197.189"/>
		<line display="none" fill="none" stroke="#A6A7AA" stroke-miterlimit="10" x1="200.04" y1="206.132" x2="286.366" y2="206.132"/>
		<line display="none" fill="none" stroke="#A6A7AA" stroke-miterlimit="10" x1="200.04" y1="215.074" x2="286.366" y2="215.074"/>
		<line display="none" fill="none" stroke="#A6A7AA" stroke-miterlimit="10" x1="200.04" y1="224.016" x2="286.366" y2="224.016"/>
		<line display="none" fill="none" stroke="#A6A7AA" stroke-miterlimit="10" x1="196.101" y1="232.958" x2="282.427" y2="232.958"/>
		<line display="none" fill="none" stroke="#A6A7AA" stroke-miterlimit="10" x1="191.098" y1="241.9" x2="277.424" y2="241.9"/>
		<line display="none" fill="none" stroke="#A6A7AA" stroke-miterlimit="10" x1="243.204" y1="176.21" x2="232.713" y2="255.657"/>
		<polygon display="none" fill="#D7D2D1" points="287.914,176.21 279.487,253.938 282.427,255.657 291.351,177.241 		"/>
		<polygon display="none" fill="#D7D2D1" points="279.488,253.938 191.098,252.905 188.002,255.657 282.426,255.657 		"/>
		<g display="none" opacity="0.3">
			<g display="inline">
				<defs>
					<rect id="SVGID_27_" x="195.577" y="181.025" width="87.693" height="69.817"/>
				</defs>
				<clipPath id="SVGID_28_">
					<use xlink:href="#SVGID_27_"  overflow="visible"/>
				</clipPath>
				<path clip-path="url(#SVGID_28_)" fill="#D7D2D1" d="M283.271,181.025c0,0-17.017,34.266-43.846,36.565
					c-26.831,2.298-43.848,33.253-43.848,33.253h78.064L283.271,181.025z"/>
			</g>
		</g>
		<polygon display="none" fill="#A6A7AA" points="474.714,261.438 578.611,261.438 568.294,171.499 464.396,171.499 		"/>
		<polygon display="none" fill="none" stroke="#211F1F" stroke-width="5" stroke-miterlimit="10" points="474.714,261.438 
			578.611,261.438 568.294,171.499 464.396,171.499 		"/>
		<polygon display="none" fill="#211F1F" points="477.497,181.025 556.263,181.025 565.192,250.844 487.127,250.844 		"/>
		<line display="none" fill="none" stroke="#A6A7AA" stroke-miterlimit="10" x1="560.729" y1="188.248" x2="474.401" y2="188.248"/>
		<line display="none" fill="none" stroke="#A6A7AA" stroke-miterlimit="10" x1="560.729" y1="197.189" x2="474.401" y2="197.189"/>
		<line display="none" fill="none" stroke="#A6A7AA" stroke-miterlimit="10" x1="560.729" y1="206.132" x2="474.401" y2="206.132"/>
		<line display="none" fill="none" stroke="#A6A7AA" stroke-miterlimit="10" x1="560.729" y1="215.074" x2="474.401" y2="215.074"/>
		<line display="none" fill="none" stroke="#A6A7AA" stroke-miterlimit="10" x1="560.729" y1="224.016" x2="474.401" y2="224.016"/>
		<line display="none" fill="none" stroke="#A6A7AA" stroke-miterlimit="10" x1="564.666" y1="232.958" x2="478.341" y2="232.958"/>
		<line display="none" fill="none" stroke="#A6A7AA" stroke-miterlimit="10" x1="569.669" y1="241.9" x2="483.343" y2="241.9"/>
		<line display="none" fill="none" stroke="#A6A7AA" stroke-miterlimit="10" x1="517.564" y1="176.21" x2="528.055" y2="255.657"/>
		<polygon display="none" fill="#D7D2D1" points="472.854,176.21 481.28,253.938 478.342,255.657 469.416,177.241 		"/>
		<polygon display="none" fill="#D7D2D1" points="481.28,253.938 569.671,252.905 572.766,255.657 478.342,255.657 		"/>
		<g display="none" opacity="0.3">
			<g display="inline">
				<defs>
					<rect id="SVGID_29_" x="477.497" y="181.025" width="87.693" height="69.817"/>
				</defs>
				<clipPath id="SVGID_30_">
					<use xlink:href="#SVGID_29_"  overflow="visible"/>
				</clipPath>
				<path clip-path="url(#SVGID_30_)" fill="#D7D2D1" d="M477.497,181.025c0,0,17.018,34.266,43.847,36.565
					c26.831,2.298,43.849,33.253,43.849,33.253h-78.065L477.497,181.025z"/>
			</g>
		</g>
		
			<rect id="stars_16_" x="721.984" y="262.201" transform="matrix(0.7072 0.707 -0.707 0.7072 403.3556 -436.4061)" fill="#A6A7AA" width="13.122" height="13.123"/>
		
			<rect id="stars_15_" x="266.587" y="48.472" transform="matrix(0.7071 0.7071 -0.7071 0.7071 118.9116 -177.0218)" fill="#A6A7AA" width="13.122" height="13.122"/>
		
			<rect id="stars_14_" x="126.743" y="65.207" transform="matrix(0.7071 0.7071 -0.7071 0.7071 89.7876 -73.2384)" fill="#A6A7AA" width="13.122" height="13.123"/>
		
			<rect id="stars_13_" x="27.888" y="119.176" transform="matrix(0.7071 0.7071 -0.7071 0.7071 99.0023 12.4699)" fill="#A6A7AA" width="13.123" height="13.122"/>
		
			<rect id="stars_12_" x="721.984" y="65.207" transform="matrix(0.7071 0.7071 -0.7071 0.7071 264.1038 -494.1143)" fill="#A6A7AA" width="13.122" height="13.123"/>
		
			<rect id="stars_11_" x="640.937" y="86.497" transform="matrix(0.7071 0.7071 -0.7071 0.7071 255.4638 -430.6044)" fill="#A6A7AA" width="13.122" height="13.122"/>
		
			<rect id="stars_10_" x="640.937" y="173.342" transform="matrix(0.7071 0.7071 -0.7071 0.7071 316.8889 -405.1754)" fill="#A6A7AA" width="13.122" height="13.121"/>
		
			<rect id="stars_9_" x="599.487" y="24.863" transform="matrix(0.7071 0.7071 -0.7071 0.7071 196.3227 -417.9268)" fill="#E5E5E4" width="6.313" height="6.312"/>
		
			<rect id="stars_8_" x="725.389" y="161.618" transform="matrix(0.7071 0.7071 -0.7071 0.7071 329.8644 -466.8759)" fill="#E5E5E4" width="6.313" height="6.313"/>
		
			<rect id="stars_7_" x="196.884" y="84.883" transform="matrix(0.7071 0.7071 -0.7071 0.7071 120.854 -115.6682)" fill="#E5E5E4" width="6.312" height="6.311"/>
		
			<rect id="stars_6_" x="116.053" y="11.472" transform="matrix(0.7071 0.7071 -0.7071 0.7071 45.2646 -80.0137)" fill="#E5E5E4" width="6.313" height="6.312"/>
		
			<rect id="stars_5_" x="107.126" y="108.96" transform="matrix(0.7071 0.7071 -0.7071 0.7071 111.5785 -45.1434)" fill="#E5E5E4" width="6.312" height="6.312"/>
		
			<rect id="stars_4_" x="120.869" y="221.977" transform="matrix(0.7071 0.7071 -0.7071 0.7071 195.506 -21.7627)" fill="#E5E5E4" width="6.312" height="6.313"/>
		
			<rect id="stars_3_" x="17.55" y="50.06" transform="matrix(0.7071 0.7071 -0.7071 0.7071 43.6941 0.9448)" fill="#E5E5E4" width="6.312" height="6.312"/>
		
			<rect id="stars_2_" x="40.571" y="179.503" transform="matrix(0.7071 0.7071 -0.7071 0.7071 141.9667 22.5795)" fill="#E5E5E4" width="6.312" height="6.312"/>
		
			<rect id="stars_1_" x="527.891" y="64.149" transform="matrix(0.7071 0.7071 -0.7071 0.7071 203.1321 -355.7944)" fill="#E5E5E4" width="6.313" height="6.313"/>
		
			<rect id="stars" x="448.286" y="15.936" transform="matrix(0.7071 0.7071 -0.7071 0.7071 145.7425 -313.6429)" fill="#E5E5E4" width="6.312" height="6.312"/>
	</g>
</g>
</svg>
