<?xml version="1.0" encoding="utf-8"?>
<!-- Generator: Adobe Illustrator 16.0.0, SVG Export Plug-In . SVG Version: 6.00 Build 0)  -->
<!DOCTYPE svg PUBLIC "-//W3C//DTD SVG 1.1//EN" "http://www.w3.org/Graphics/SVG/1.1/DTD/svg11.dtd">
<svg version="1.1" id="Layer_1" xmlns="http://www.w3.org/2000/svg" xmlns:xlink="http://www.w3.org/1999/xlink" x="0px" y="0px"
	 width="1366px" height="900px" viewBox="0 0 1366 900" style="enable-background:new 0 0 1366 900;" xml:space="preserve">
<style type="text/css">
<![CDATA[
	.st0{fill:#F2F2F2;}
]]>
</style>
<g id="Integration_Support">
	<g>
		<g id="big-cog">
			<path class="st0" d="M636.084,403.776c-25.518,0-46.277,20.76-46.277,46.277c0,25.517,20.76,46.276,46.277,46.276
				c25.517,0,46.276-20.76,46.276-46.276C682.36,424.536,661.601,403.776,636.084,403.776z M636.084,488.996
				c-21.475,0-38.943-17.469-38.943-38.942s17.469-38.943,38.943-38.943c13.213,0,24.891,6.628,31.936,16.722l-39.715,33.602
				l-12.149-13.047c-1.381-1.48-3.702-1.564-5.184-0.184c-1.48,1.379-1.563,3.7-0.184,5.182l14.531,15.605
				c0.72,0.773,1.699,1.168,2.686,1.168c0.836,0,1.679-0.286,2.365-0.867l41.314-34.954c2.133,4.812,3.341,10.123,3.341,15.717
				C675.025,471.527,657.556,488.996,636.084,488.996z"/>
			<path class="st0 outer" d="M737.815,464.408l-13.668-2.43c0.525-3.903,0.822-7.879,0.822-11.925c0-3.973-0.287-7.878-0.796-11.713
				l13.677-2.396c1.992-0.351,3.327-2.249,2.979-4.245c-0.35-1.995-2.245-3.331-4.246-2.979l-13.663,2.395
				c-1.709-7.84-4.456-15.291-8.087-22.213l12.04-6.938c1.755-1.012,2.357-3.253,1.347-5.008c-1.014-1.756-3.259-2.357-5.007-1.347
				l-12.054,6.946c-4.249-6.691-9.35-12.789-15.176-18.112l8.946-10.65c1.304-1.551,1.103-3.865-0.449-5.167
				c-1.55-1.302-3.863-1.101-5.164,0.45l-8.954,10.659c-6.215-4.809-13.079-8.818-20.442-11.862l4.751-13.039
				c0.694-1.903-0.288-4.008-2.189-4.702c-1.9-0.691-4.007,0.288-4.702,2.191l-4.121,13.03c-7.391-2.359-17.658-3.767-22.658-4.096
				v-13.882c0-2.024-2.475-3.666-4.5-3.666s-4.5,1.642-4.5,3.666v13.882c-8,0.324-15.398,1.678-22.668,3.958l-4.577-13.044
				c-0.685-1.907-2.734-2.899-4.638-2.213c-1.907,0.684-2.872,2.783-2.188,4.69l4.703,13.065
				c-7.38,3.008-14.259,6.976-20.497,11.755l-8.897-10.699c-1.295-1.559-3.606-1.77-5.162-0.474
				c-1.556,1.294-1.768,3.605-0.472,5.163l8.893,10.693c-5.852,5.296-10.98,11.37-15.259,18.041l-12.021-7.005
				c-1.751-1.02-3.996-0.427-5.016,1.322c-1.017,1.75-0.427,3.995,1.323,5.015l12.003,6.993c-3.665,6.905-6.438,14.349-8.183,22.177
				l-13.657-2.463c-1.995-0.355-3.901,0.966-4.259,2.96c-0.359,1.992,0.966,3.9,2.958,4.259l13.658,2.462
				c-0.543,3.972-0.85,8.019-0.85,12.139c0,3.898,0.281,7.73,0.77,11.498l-13.683,2.364c-1.995,0.345-3.335,2.242-2.989,4.237
				c0.308,1.785,1.859,3.044,3.609,3.044c0.208,0,0.419-0.018,0.627-0.054l13.669-2.361c1.69,7.844,4.421,15.301,8.036,22.229
				l-12.059,6.911c-1.755,1.007-2.364,3.247-1.356,5.005c0.678,1.182,1.913,1.844,3.184,1.844c0.619,0,1.244-0.157,1.821-0.486
				l12.067-6.915c4.231,6.701,9.321,12.808,15.135,18.145l-8.975,10.633c-1.305,1.548-1.11,3.86,0.438,5.165
				c0.688,0.581,1.528,0.867,2.362,0.867c1.043,0,2.079-0.442,2.805-1.302l8.979-10.64c6.206,4.825,13.054,8.854,20.412,11.915
				l-4.782,13.024c-0.697,1.899,0.278,4.007,2.181,4.704c0.416,0.156,0.843,0.227,1.263,0.227c1.494,0,2.897-0.919,3.443-2.404
				l4.778-13.022c7.388,2.378,15.189,3.81,23.273,4.161l-0.035,14.679c-0.006,2.024,1.633,4.479,3.659,4.479
				c0.003,0,0.006,0,0.009,0c2.021,0,3.662-2.438,3.666-4.462l0.033-14.284c8.085-0.311,15.898-1.893,23.294-4.232l4.715,12.938
				c0.54,1.491,1.948,2.368,3.448,2.368c0.415,0,0.837-0.097,1.247-0.245c1.905-0.687,2.892-2.802,2.202-4.709l-4.72-13.057
				c7.371-3.026,14.244-7.018,20.471-11.813l8.928,10.68c0.726,0.867,1.766,1.315,2.815,1.315c0.83,0,1.664-0.281,2.351-0.854
				c1.553-1.303,1.76-3.612,0.46-5.166l-8.917-10.669c5.839-5.311,10.95-11.4,15.214-18.08l12.037,6.976
				c0.578,0.335,1.212,0.495,1.837,0.495c1.265,0,2.495-0.654,3.175-1.828c1.016-1.753,0.419-3.996-1.333-5.012l-12.022-6.968
				c3.646-6.912,6.406-14.359,8.135-22.192l13.661,2.427c0.217,0.039,0.434,0.059,0.646,0.059c1.744,0,3.288-1.25,3.605-3.026
				C741.139,466.665,739.811,464.762,737.815,464.408z M636.084,531.607c-9.857,0-19.313-1.568-28.066-4.783
				c-0.013-0.006-0.021,0.176-0.033,0.176c-0.006,0-0.013,0-0.02,0c-31.156-11-53.436-41.66-53.436-76.75
				c0-44.971,36.585-81.652,81.555-81.652c9.791,0,19.185,1.689,27.891,4.866c0.009,0.003,0.014-0.015,0.021-0.012
				c0.014,0.004,0.028-0.006,0.043-0.002c31.241,11.435,53.599,41.457,53.599,76.61
				C717.637,495.028,681.053,531.607,636.084,531.607z"/>
		</g>
		<g id="small-cog">
			<path class="st0" d="M784.137,488.348c-9.072,0-16.453,7.381-16.453,16.453c0,9.071,7.381,16.453,16.453,16.453
				c9.073,0,16.454-7.382,16.454-16.453C800.591,495.729,793.21,488.348,784.137,488.348z"/>
			<path class="st0" d="M832.513,509.674l-4.663-0.83c0.121-1.333,0.191-2.679,0.191-4.043c0-1.329-0.067-2.641-0.184-3.938
				l4.669-0.817c1.991-0.351,3.325-2.251,2.978-4.246c-0.352-1.995-2.243-3.321-4.248-2.979l-4.657,0.816
				c-0.681-2.604-1.604-5.111-2.729-7.5l4.104-2.367c1.754-1.012,2.358-3.253,1.349-5.008c-1.017-1.757-3.264-2.357-5.01-1.347
				l-4.119,2.374c-1.521-2.188-3.234-4.238-5.121-6.113l3.054-3.638c1.305-1.552,1.103-3.866-0.447-5.168
				c-1.551-1.304-3.862-1.103-5.165,0.449l-3.061,3.643c-2.165-1.535-4.473-2.878-6.901-4.006l1.624-4.455
				c0.693-1.901-0.286-4.007-2.191-4.699c-1.9-0.692-4.008,0.287-4.699,2.19l-2.022,4.447c-2.536-0.69-5.263-1.157-8.263-1.381
				v-4.739c0-2.026-1.973-3.668-4-3.668c-2.025,0-4,1.642-4,3.668v4.739c-3,0.218-4.449,0.662-6.924,1.323l-1.229-4.453
				c-0.684-1.905-2.6-2.897-4.506-2.212c-1.906,0.684-2.808,2.782-2.123,4.689l1.648,4.464c-2.435,1.115-4.727,2.444-6.899,3.969
				l-3.027-3.655c-1.296-1.56-3.601-1.771-5.157-0.475c-1.557,1.296-1.767,3.606-0.473,5.163l3.043,3.657
				c-1.895,1.866-3.617,3.904-5.15,6.086l-4.11-2.394c-1.751-1.019-3.993-0.428-5.015,1.323c-1.019,1.749-0.426,3.994,1.322,5.014
				l4.092,2.385c-1.139,2.386-2.065,4.891-2.762,7.489l-4.655-0.839c-1.988-0.363-3.901,0.964-4.26,2.957
				c-0.36,1.993,0.964,3.9,2.957,4.259l4.659,0.84c-0.13,1.367-0.202,2.751-0.202,4.151c0,1.292,0.067,2.566,0.178,3.831
				l-4.67,0.807c-1.995,0.345-3.332,2.241-2.989,4.237c0.307,1.785,1.857,3.044,3.609,3.044c0.208,0,0.418-0.018,0.63-0.053
				l4.655-0.806c0.679,2.604,1.598,5.112,2.719,7.506l-4.111,2.358c-1.758,1.008-2.366,3.245-1.358,5.004
				c0.677,1.181,1.913,1.845,3.186,1.845c0.617,0,1.245-0.156,1.818-0.486l4.124-2.361c1.517,2.191,3.225,4.247,5.104,6.125
				l-3.062,3.629c-1.307,1.548-1.112,3.863,0.435,5.168c0.688,0.581,1.527,0.864,2.364,0.864c1.043,0,2.08-0.44,2.804-1.3
				l3.069-3.636c2.161,1.54,4.463,2.891,6.89,4.022l-1.635,4.45c-0.697,1.901,0.279,4.009,2.181,4.706
				c0.416,0.151,0.843,0.227,1.263,0.227c1.494,0,2.897-0.921,3.442-2.404l1.633-4.447c2.535,0.697,5.16,1.173,7.856,1.402
				l-0.011,5.267c-0.004,2.023,1.632,4.2,3.656,4.2c0.005,0,0.008,0,0.01,0c2.022,0,3.662-2.163,3.668-4.184l0.011-5.004
				c2.697-0.219,5.327-0.807,7.864-1.493l1.61,4.388c0.54,1.492,1.948,2.388,3.449,2.388c0.413,0,0.835-0.089,1.246-0.237
				c1.905-0.689,2.89-2.8,2.201-4.701l-1.612-4.466c2.431-1.121,4.742-2.459,6.91-3.988l3.05,3.649
				c0.725,0.867,1.766,1.315,2.814,1.315c0.829,0,1.664-0.281,2.352-0.854c1.554-1.3,1.759-3.612,0.462-5.166L814.993,536
				c1.893-1.872,3.611-3.917,5.141-6.103l4.108,2.386c0.578,0.334,1.214,0.491,1.838,0.491c1.264,0,2.496-0.653,3.177-1.826
				c1.016-1.754,0.419-3.999-1.335-5.015l-4.096-2.372c1.13-2.391,2.054-4.896,2.745-7.497l4.658,0.828
				c0.216,0.039,0.432,0.058,0.646,0.058c1.742,0,3.291-1.249,3.604-3.025C835.833,511.931,834.504,510.027,832.513,509.674z
				 M784.137,528.587c-13.115,0-23.788-10.671-23.788-23.786c0-13.118,10.673-23.787,23.788-23.787
				c13.117,0,23.786,10.669,23.786,23.787C807.923,517.916,797.254,528.587,784.137,528.587z"/>
		</g>
	</g>
</g>
   <style>
    #big-cog > .outer {
      -webkit-transform: rotate(0deg);
      -webkit-transform-origin: center;
      -webkit-animation: rotateAnims 5s linear infinite;
    }
     
     #small-cog {
      -webkit-transform: rotate(0deg);
      -webkit-transform-origin: center;
      -webkit-animation: rotateAnimsCounter 5s linear infinite;
    }
    
    @-webkit-keyframes rotateAnims {
      from {
        -webkit-transform: rotate(0deg);
      }
      to {
        -webkit-transform: rotate(360deg);
      }
    }
     
     @-webkit-keyframes rotateAnimsCounter {
      from {
        -webkit-transform: rotate(0deg);
      }
      to {
        -webkit-transform: rotate(-360deg);
      }
    }
  </style>
</svg>
