<?xml version="1.0" encoding="utf-8"?>
<!-- Generator: Adobe Illustrator 16.0.0, SVG Export Plug-In . SVG Version: 6.00 Build 0)  -->
<!DOCTYPE svg PUBLIC "-//W3C//DTD SVG 1.1//EN" "http://www.w3.org/Graphics/SVG/1.1/DTD/svg11.dtd">
<svg version="1.1" id="Layer_1" xmlns="http://www.w3.org/2000/svg" xmlns:xlink="http://www.w3.org/1999/xlink" x="0px" y="0px"
	 width="1366px" height="900px" viewBox="0 0 1366 900" style="enable-background:new 0 0 1366 900;" xml:space="preserve">
<style type="text/css">
<![CDATA[
	.st0{fill:#F2F2F2;}
]]>
</style>
<g id="Service_Integration">
	<g>
		<path class="st0" d="M792.747,514.795l-77.123-44.529v-30.355c0-0.606-0.172-1.165-0.447-1.659l24.882-15.178
			c1.029-0.629,1.656-1.746,1.656-2.953v-71.544c0-0.1-0.004-0.197-0.011-0.297c-0.043-0.502-4.96-50.28-57.979-50.28
			c-53.021,0-57.934,49.778-57.978,50.28c-0.008,0.1-0.012,0.197-0.012,0.297v71.544c0,1.207,0.627,2.324,1.656,2.953l24.885,15.178
			c-0.278,0.494-0.449,1.053-0.449,1.659v30.355L574.7,514.795c-1.053,0.607-1.7,1.731-1.7,2.947v61.202
			c0,1.879,1.523,3.403,3.403,3.403h50.333c1.88,0,3.403-1.524,3.403-3.403c0-1.882-1.523-3.404-3.403-3.404h-46.931v-55.833
			l77.128-44.529c1.053-0.607,1.702-1.732,1.702-2.946V442.13l23.291,14.208c0.555,0.335,1.178,0.507,1.801,0.507
			s1.247-0.172,1.801-0.507l23.289-14.208v30.101c0,1.214,0.649,2.339,1.703,2.946l77.129,44.529v55.833h-44.512
			c-1.88,0-3.403,1.522-3.403,3.404c0,1.879,1.523,3.403,3.403,3.403h47.911c1.881,0,3.406-1.524,3.406-3.403v-61.202
			C794.453,516.526,793.806,515.402,792.747,514.795z M683.726,449.34l-51.077-31.158v-69.446
			c0.309-3.188,5.179-43.824,51.077-43.824c45.77,0,50.762,40.683,51.078,43.83v69.44L683.726,449.34z"/>
		<path class="st0" d="M683.735,537.011c-8.596,0-15.587,6.992-15.587,15.586c0,8.595,6.991,15.586,15.587,15.586
			c8.594,0,15.587-6.991,15.587-15.586C699.322,544.003,692.329,537.011,683.735,537.011z"/>
		<path id="cog" class="st0" d="M732.397,544.069c-0.331-1.89-2.126-3.147-4.023-2.824l-4.411,0.774
			c-0.649-2.466-1.521-4.841-2.588-7.105l3.888-2.24c1.662-0.959,2.234-3.081,1.276-4.744c-0.96-1.665-3.086-2.234-4.743-1.277
			l-3.901,2.25c-1.444-2.072-3.065-4.016-4.853-5.793l2.895-3.446c1.235-1.468,1.043-3.66-0.425-4.893
			c-1.47-1.235-3.66-1.045-4.893,0.424l-2.898,3.45c-2.053-1.454-4.237-2.725-6.538-3.793l1.536-4.221
			c0.656-1.804-0.272-3.797-2.075-4.453c-1.801-0.656-3.797,0.272-4.452,2.074l-1.535,4.214c-2.404-0.653-4.893-1.097-7.448-1.308
			v-4.489c0-1.92-1.553-3.475-3.473-3.475c-1.919,0-3.474,1.555-3.474,3.475v4.489c-2.485,0.205-4.91,0.628-7.254,1.254
			l-1.514-4.219c-0.648-1.807-2.635-2.744-4.444-2.098c-1.804,0.647-2.743,2.638-2.095,4.442l1.517,4.23
			c-2.306,1.058-4.5,2.317-6.556,3.76l-2.879-3.463c-1.229-1.478-3.42-1.677-4.894-0.449c-1.475,1.226-1.676,3.418-0.449,4.893
			l2.881,3.464c-1.797,1.768-3.428,3.699-4.881,5.768l-3.892-2.271c-1.659-0.963-3.783-0.405-4.751,1.253
			c-0.966,1.659-0.403,3.787,1.252,4.752l3.877,2.259c-1.081,2.259-1.957,4.632-2.619,7.093l-4.411-0.794
			c-1.884-0.345-3.695,0.913-4.035,2.803c-0.34,1.888,0.914,3.694,2.804,4.035l4.412,0.795c-0.123,1.296-0.191,2.605-0.191,3.932
			c0,1.224,0.064,2.433,0.168,3.631l-4.424,0.764c-1.891,0.327-3.158,2.124-2.831,4.016c0.29,1.688,1.76,2.883,3.418,2.883
			c0.197,0,0.395-0.018,0.596-0.052l4.412-0.761c0.642,2.466,1.513,4.841,2.575,7.109l-3.896,2.234
			c-1.664,0.953-2.24,3.075-1.285,4.738c0.642,1.121,1.812,1.747,3.015,1.747c0.587,0,1.181-0.146,1.725-0.458l3.907-2.238
			c1.437,2.078,3.054,4.024,4.837,5.803l-2.901,3.438c-1.239,1.467-1.056,3.659,0.411,4.895c0.653,0.552,1.448,0.822,2.24,0.822
			c0.988,0,1.969-0.421,2.656-1.235l2.907-3.44c2.047,1.458,4.23,2.734,6.528,3.808l-1.549,4.218c-0.66,1.8,0.264,3.796,2.064,4.457
			c0.396,0.146,0.799,0.213,1.197,0.213c1.414,0,2.746-0.872,3.26-2.278l1.547-4.209c2.401,0.658,4.89,1.109,7.443,1.328
			l-0.01,4.489c-0.004,1.918,1.547,3.477,3.465,3.482c0.002,0,0.006,0,0.006,0c1.916,0,3.473-1.551,3.476-3.466l0.011-4.491
			c2.556-0.207,5.046-0.639,7.452-1.29l1.524,4.219c0.512,1.414,1.845,2.296,3.266,2.296c0.394,0,0.793-0.07,1.184-0.212
			c1.803-0.65,2.737-2.642,2.084-4.447l-1.528-4.225c2.304-1.062,4.494-2.329,6.547-3.775l2.891,3.458
			c0.686,0.819,1.673,1.244,2.666,1.244c0.785,0,1.578-0.265,2.227-0.809c1.473-1.229,1.668-3.422,0.437-4.895l-2.889-3.454
			c1.792-1.773,3.418-3.709,4.867-5.781l3.896,2.259c0.547,0.317,1.148,0.468,1.739,0.468c1.198,0,2.363-0.618,3.008-1.731
			c0.962-1.661,0.396-3.785-1.264-4.746l-3.882-2.252c1.074-2.265,1.948-4.636,2.604-7.1l4.411,0.782
			c0.207,0.038,0.41,0.055,0.612,0.055c1.652,0,3.117-1.184,3.415-2.864c0.336-1.89-0.923-3.695-2.812-4.03l-4.415-0.784
			c0.114-1.262,0.182-2.539,0.182-3.831c0-1.258-0.065-2.5-0.175-3.731l4.419-0.774
			C731.464,547.762,732.728,545.961,732.397,544.069z M683.735,575.131c-12.426,0-22.536-10.107-22.536-22.534
			c0-12.425,10.11-22.534,22.536-22.534c12.427,0,22.534,10.109,22.534,22.534C706.27,565.023,696.162,575.131,683.735,575.131z"/>
	</g>
</g>
  <style>
    #cog {
      -webkit-transform: rotate(0deg);
      -webkit-transform-origin: center;
      -webkit-animation: rotateAnims 5s linear infinite;
    }
    
    @-webkit-keyframes rotateAnims {
      from {
        -webkit-transform: rotate(0deg);
      }
      to {
        -webkit-transform: rotate(360deg);
      }
    }
  </style>
</svg>
