<?xml version="1.0" encoding="utf-8"?>
<!-- Generator: Adobe Illustrator 16.0.0, SVG Export Plug-In . SVG Version: 6.00 Build 0)  -->
<!DOCTYPE svg PUBLIC "-//W3C//DTD SVG 1.1//EN" "http://www.w3.org/Graphics/SVG/1.1/DTD/svg11.dtd">
<svg version="1.1" id="Layer_1" xmlns="http://www.w3.org/2000/svg" xmlns:xlink="http://www.w3.org/1999/xlink" x="0px" y="0px"
	 width="1366px" height="900px" viewBox="0 0 1366 900" style="enable-background:new 0 0 1366 900;" xml:space="preserve">
<style type="text/css">
<![CDATA[
	.st0{opacity:0.3;clip-path:url(#SVGID_2_);}
	.st1{fill:none;stroke:#cecece;stroke-miterlimit:10;}
]]>
</style>
<g id="Bllock_x5F_04">
	<g>
		<defs>
			<polygon id="SVGID_1_" points="1366,817.264 683,689.201 0,817.264 0,83.039 1366,83.039 			"/>
		</defs>
		<clipPath id="SVGID_2_">
			<use xlink:href="#SVGID_1_"  style="overflow:visible;"/>
		</clipPath>
		<g class="st0">
			<polygon class="st1" points="835.55,781.324 1467.383,372.989 1122.682,-242.741 965.805,46.015 386.322,-289.451 
				215.572,162.792 -272.133,285.938 -39.486,489.765 -92.845,884.682 227.311,816.739 257.192,517.016 526.674,785.952 
				683.129,638.39 			"/>
			<polyline class="st1" points="1217.333,744.451 1420.427,-14.496 965.805,46.015 854.817,-230.001 118.458,-14.496 
				-161.146,-142.95 -112.055,560.167 257.192,517.016 -161.146,961.116 280.67,956.87 2.134,213.748 942.326,281.691 
				1245.408,263.113 1122.682,594.556 			"/>
			<polyline class="st1" points="-211.303,112.239 344.702,312.478 674.462,-142.95 942.326,281.691 1313.708,-58.021 
				1245.408,263.113 1518.607,604.555 1122.682,594.556 1368.135,765.781 1245.408,263.113 989.283,1.428 354.299,312.478 
				-54.427,417.576 144.07,655.375 132.331,851.372 			"/>
		</g>
	</g>
</g>
  <style>
  .st1{
    fill:none;
    opacity: .7;
    stroke-miterlimit:10;
    stroke-dasharray: 500; 
    stroke-dashoffset: 1500;
    animation: draw 7s infinite;
  }
  
  @keyframes draw {
  0%, 100% {
    stroke-dashoffset: 1500;
    
  }
  
  50% {
    stroke-dashoffset: 0;
    
  }
}

</style>
</svg>
