<?xml version="1.0" encoding="utf-8"?>
<!-- Generator: Adobe Illustrator 18.0.0, SVG Export Plug-In . SVG Version: 6.00 Build 0)  -->
<!DOCTYPE svg PUBLIC "-//W3C//DTD SVG 1.1//EN" "http://www.w3.org/Graphics/SVG/1.1/DTD/svg11.dtd">
<svg version="1.1" id="Lowpoly_x5F_Sphere" xmlns="http://www.w3.org/2000/svg" xmlns:xlink="http://www.w3.org/1999/xlink" x="0px"
	 y="0px" viewBox="0 0 600 600" enable-background="new 0 0 600 600" xml:space="preserve">
<polygon fill="#1C1E23" points="311,0.2 300,62 362.5,6.5 "/>
<polygon fill="#939598" points="300,62 362.5,104 362.5,6.5 "/>
<polygon fill="#6D6F75" points="362.5,6.5 398,77 413.3,22.1 "/>
<polygon fill="#BABBBE" points="362.5,6.5 362.5,104 398,77 "/>
<polygon fill="#BABBBE" points="398,77 457.6,44.7 413.3,22.1 "/>
<polygon fill="#454850" points="398,77 446,119 457.6,44.7 "/>
<polygon fill="#939598" points="362.5,104 446,119 398,77 "/>
<polygon fill="#939598" points="446,119 500.7,77 457.6,44.7 "/>
<polygon fill="#BABBBE" points="446,119 451,202 500.7,77 "/>
<polygon fill="#6D6F75" points="544.6,126.3 475.8,139.5 500.7,77 "/>
<polygon fill="#939598" points="544.6,126.3 475.8,139.5 451,202 "/>
<polygon fill="#454850" points="497.8,164.1 574.5,178.9 544.6,126.3 "/>
<polygon fill="#1C1E23" points="497.8,164.1 544.6,239 475.8,244 "/>
<polygon fill="#6D6F75" points="574.5,178.9 544.6,239 497.8,164.1 "/>
<polygon fill="#BABBBE" points="574.5,178.9 555.3,217.6 592,230.9 "/>
<polygon fill="#454850" points="544.6,239 592,230.9 555.3,217.6 "/>
<polygon fill="#939598" points="544.6,239 599,275 592,230.9 "/>
<polygon fill="#BABBBE" points="599,275 475.8,244 544.6,239 "/>
<polygon fill="#6D6F75" points="547.6,262.1 599,320.3 599,275 "/>
<polygon fill="#454850" points="599,320.3 547.6,349.7 582.2,402.1 594.5,357.7 "/>
<polygon fill="#939598" points="547.6,262.1 573.3,335 599,320.3 "/>
<polygon fill="#6D6F75" points="475.8,244 573.3,335 547.6,262.1 "/>
<polygon fill="#BABBBE" points="537.4,301.5 547.6,349.7 573.3,335 "/>
<polygon fill="#BABBBE" points="547.6,349.7 564.2,442.3 582.2,402.1 "/>
<polygon fill="#939598" points="500.7,267.2 442.3,325.6 537.4,301.5 "/>
<polygon fill="#454850" points="475.8,317.1 547.6,349.7 537.4,301.5 "/>
<polygon fill="#1C1E23" points="555.3,396 484,412 524.6,498.9 564.2,442.3 "/>
<polygon fill="#6D6F75" points="547.6,349.7 484,412 555.3,396 "/>
<polygon fill="#454850" points="451,202 475.8,244 497.8,164.1 "/>
<polygon fill="#939598" points="500.7,328.4 515.8,380.8 547.6,349.7 "/>
<polygon fill="#BABBBE" points="475.8,317.1 484,412 515.8,380.8 500.7,328.4 "/>
<polygon fill="#BABBBE" points="505.9,458.9 466.2,549.8 524.6,498.9 "/>
<polygon fill="#454850" points="484,412 442.3,325.6 475.8,317.1 "/>
<polygon fill="#454850" points="466.2,549.8 484,412 505.9,458.9 "/>
<polygon fill="#1C1E23" points="472.1,504.4 399.7,513 466.2,549.8 "/>
<polygon fill="#6D6F75" points="399.7,513 484,412 472.1,504.4 "/>
<polygon fill="#BABBBE" points="455.1,352 448.5,454.6 484,412 "/>
<polygon fill="#939598" points="427.1,528.2 405,581.1 466.2,549.8 "/>
<polygon fill="#454850" points="399.7,513 405,581.1 427.1,528.2 "/>
<polygon fill="#BABBBE" points="402.4,547 335,539.7 405,581.1 "/>
<polygon fill="#1C1E23" points="448.5,454.6 312,412 399.7,513 "/>
<polygon fill="#939598" points="312,412 335,539.7 402.4,547 399.7,513 "/>
<polygon fill="#1C1E23" points="335,539.7 307.1,599.9 405,581.1 "/>
<polygon fill="#454850" points="188.7,578.7 322.6,470.9 335,539.7 261.9,597.6 "/>
<polygon fill="#BABBBE" points="261.9,597.6 307.1,599.9 335,539.7 "/>
<polygon fill="#939598" points="119.5,539.7 243.9,534.2 188.7,578.7 "/>
<polygon fill="#BABBBE" points="172,537.4 119.5,442.3 119.5,539.7 "/>
<polygon fill="#BABBBE" points="276.8,507.8 119.5,442.3 172,537.4 "/>
<polygon fill="#1C1E23" points="172,537.4 243.9,534.2 276.8,507.8 "/>
<polygon fill="#1C1E23" points="119.5,479.5 53.4,470.9 119.5,539.7 "/>
<polygon fill="#6D6F75" points="119.5,442.3 53.4,470.9 119.5,479.5 "/>
<polygon fill="#454850" points="119.5,442.3 19.7,407.1 53.4,470.9 "/>
<polygon fill="#454850" points="159.6,458.9 172,373 119.5,442.3 "/>
<polygon fill="#BABBBE" points="19.7,407.1 157,392.8 119.5,442.3 "/>
<polygon fill="#939598" points="3.6,346.3 83.8,400.4 19.7,407.1 "/>
<polygon fill="#939598" points="172,373 122.9,396.3 157,392.8 "/>
<polygon fill="#1C1E23" points="145.8,384.7 37.5,369.2 83.8,400.4 122.9,396.3 "/>
<polygon fill="#BABBBE" points="172,373 80.3,317.1 145.8,384.7 "/>
<polygon fill="#6D6F75" points="103.9,341.4 69.6,373.8 145.8,384.7 "/>
<polygon fill="#454850" points="80.3,317.1 37.5,369.2 69.6,373.8 103.9,341.4 "/>
<polygon fill="#1C1E23" points="80.3,317.1 3.6,346.3 37.5,369.2 "/>
<polygon fill="#454850" points="53.4,327.4 0,303.7 3.6,346.3 "/>
<polygon fill="#6D6F75" points="80.3,317.1 0,303.7 53.4,327.4 "/>
<polygon fill="#BABBBE" points="80.3,317.1 8,230.9 0,303.7 "/>
<polygon fill="#454850" points="80.3,317.1 91.6,230.9 40.2,269.2 "/>
<polygon fill="#1C1E23" points="91.6,230.9 8,230.9 40.2,269.2 "/>
<polygon fill="#454850" points="8,230.9 21.7,187.7 63,230.9 "/>
<path fill="#454850" d="M300,62"/>
<polygon fill="#939598" points="91.6,230.9 21.7,187.7 63,230.9 "/>
<polygon fill="#BABBBE" points="21.7,187.7 49.8,134.4 91.6,230.9 "/>
<polygon fill="#454850" points="74.6,191.6 145.8,187.7 49.8,134.4 "/>
<polygon fill="#939598" points="49.8,134.4 80.3,95.7 101.3,163 "/>
<polygon fill="#BABBBE" points="101.3,163 183.7,112.3 145.8,187.7 "/>
<polygon fill="#6D6F75" points="80.3,95.7 150.4,132.8 101.3,163 "/>
<polygon fill="#454850" points="183.7,112.3 159.6,34.8 117.3,62 150.4,132.8 "/>
<polygon fill="#1C1E23" points="117.3,62 80.3,95.7 150.4,132.8 "/>
<polygon fill="#6D6F75" points="171.3,72.6 252.3,67 207.1,14.7 "/>
<polygon fill="#BABBBE" points="171.3,72.6 159.6,34.8 207.1,14.7 "/>
<polygon fill="#BABBBE" points="252.3,67 311,0.2 254.8,3.4 "/>
<polygon fill="#454850" points="254.8,3.4 207.1,14.7 252.3,67 "/>
<polygon fill="#939598" points="252.3,67 264,112.3 300,62 311,0.2 "/>
<polygon fill="#939598" points="183.7,112.3 252.3,67 171.3,72.6 "/>
<polygon fill="#6D6F75" points="300,62 264,112.3 362.5,104 "/>
<polygon fill="#6D6F75" points="91.6,230.9 145.8,187.7 74.6,191.6 "/>
<polygon fill="#939598" points="80.3,317.1 171.3,267.2 91.6,230.9 "/>
<polygon fill="#454850" points="122.9,293.7 133.7,349.7 80.3,317.1 "/>
<polygon fill="#BABBBE" points="122.9,293.7 171.3,267.2 207,328.4 133.7,349.7 "/>
<polygon fill="#6D6F75" points="207,328.4 172,373 133.7,349.7 "/>
<polygon fill="#939598" points="172,373 207,478.7 159.6,458.9 "/>
<polygon fill="#6D6F75" points="196.7,447.5 276.8,458.9 276.8,507.8 207,478.7 "/>
<polygon fill="#BABBBE" points="276.8,458.9 312,412 322.6,470.9 276.8,507.8 "/>
<polygon fill="#939598" points="344.4,422.1 453.2,380.8 448.5,454.6 "/>
<polygon fill="#6D6F75" points="442.3,325.6 369.7,335 402.4,400.4 453.2,380.8 455.1,352 "/>
<polygon fill="#1C1E23" points="475.8,244 442.3,325.6 500.7,267.2 "/>
<polygon fill="#6D6F75" points="451,202 398.8,247 442.3,325.6 475.8,244 "/>
<polygon fill="#454850" points="429.5,220.6 404.3,111.5 446,119 451,202 "/>
<polygon fill="#1C1E23" points="313.3,108.3 418.4,172.5 404.3,111.5 362.5,104 "/>
<polygon fill="#1C1E23" points="264,112.3 252.3,175.7 164.7,150 183.7,112.3 252.3,67 "/>
<polygon fill="#454850" points="252.3,175.7 179.7,244 145.8,187.7 164.7,150 "/>
<polygon fill="#6D6F75" points="179.7,244 145.8,187.7 91.6,230.9 171.3,267.2 "/>
<polygon fill="#1C1E23" points="207,328.4 273.7,354.6 196.7,447.5 172,373 "/>
<polygon fill="#454850" points="312,412 273.7,354.6 196.7,447.5 276.8,458.9 "/>
<polygon fill="#6D6F75" points="273.7,354.6 369.7,335 312,412 "/>
<polygon fill="#BABBBE" points="369.7,335 312,412 344.4,422.1 402.4,400.4 "/>
<polygon fill="#454850" points="369.7,335 398.8,247 442.3,325.6 "/>
<polygon fill="#BABBBE" points="398.8,247 385.8,152.6 418.4,172.5 429.5,220.6 "/>
<polygon fill="#939598" points="392.5,201.6 313.3,108.3 385.8,152.6 "/>
<polygon fill="#454850" points="313.3,108.3 264,112.3 252.3,175.7 335.5,134.4 "/>
<polygon fill="#939598" points="218,208 207,328.4 171.3,267.2 179.7,244 "/>
<polygon fill="#BABBBE" points="252.3,175.7 392.5,201.6 335.5,134.4 "/>
<polygon fill="#6D6F75" points="290.1,182.6 252.3,175.7 218,208 213.3,259.5 "/>
<polygon fill="#BABBBE" points="232.6,240.1 213.3,259.5 207,328.4 273.7,354.6 267.5,275 "/>
<polygon fill="#454850" points="267.5,275 273.7,354.6 369.7,335 "/>
<polygon fill="#1C1E23" points="398.8,247 313.3,301.9 369.7,335 "/>
<polygon fill="#939598" points="290.1,182.6 352.9,247 398.8,247 392.5,201.6 "/>
<polygon fill="#6D6F75" points="352.9,247 267.5,275 313.3,301.9 398.8,247 "/>
<polygon fill="#1C1E23" points="290.1,182.6 232.6,240.1 267.5,275 352.9,247 "/>
</svg>
