<?xml version="1.0" encoding="utf-8"?>
<!-- Generator: Adobe Illustrator 16.0.0, SVG Export Plug-In . SVG Version: 6.00 Build 0)  -->
<!DOCTYPE svg PUBLIC "-//W3C//DTD SVG 1.1//EN" "http://www.w3.org/Graphics/SVG/1.1/DTD/svg11.dtd">
<svg version="1.1" id="Layer_1" xmlns="http://www.w3.org/2000/svg" xmlns:xlink="http://www.w3.org/1999/xlink" x="0px" y="0px"
	 width="720px" height="400px" viewBox="0 0 720 400" enable-background="new 0 0 720 400" xml:space="preserve">
<image overflow="visible" width="2048" height="1248" xlink:href="bg-morphing2.jpg"  transform="matrix(1 0 0 1 -578 -470.124)">
</image>
<rect x="-473.68" y="-255.891" transform="matrix(0.6956 0.7185 -0.7185 0.6956 -311.2257 255.6082)" fill="#FFFFFF" width="32.895" height="32.895"/>
<rect x="795.119" y="-136.701" transform="matrix(0.6956 0.7184 -0.7184 0.6956 155.0957 -617.4237)" fill="#FFFFFF" width="22.013" height="22.013"/>
<rect x="985.023" y="-48.443" transform="matrix(0.6956 0.7185 -0.7185 0.6956 281.8903 -729.2553)" fill="#FFFFFF" width="32.895" height="32.895"/>
<rect x="-96.066" y="145.652" transform="matrix(0.6956 0.7184 -0.7184 0.6956 83.811 109.9511)" fill="#FFFFFF" width="16.449" height="16.448"/>
<rect x="-357.006" y="-11.006" transform="matrix(0.6956 0.7185 -0.7185 0.6956 -105.3333 248.5871)" fill="#FFFFFF" width="22.013" height="22.013"/>
<rect x="1040.994" y="-373.006" transform="matrix(0.6956 0.7185 -0.7185 0.6956 60.1796 -866.0239)" fill="#FFFFFF" width="22.013" height="22.013"/>
<rect x="1215.867" y="340.994" transform="matrix(0.6956 0.7185 -0.7185 0.6956 626.3967 -774.2991)" fill="#FFFFFF" width="22.013" height="22.013"/>
</svg>
