<svg version="1.1" xmlns="http://www.w3.org/2000/svg" xmlns:xlink="http://www.w3.org/1999/xlink" x="0px" y="0px"
	 width="860.544px" height="500.025px" viewBox="0 0 860.544 500.025" style="enable-background:new 0 0 860.544 500.025;"
	 xml:space="preserve">
<g id="Layer_0_xA0_Image_1_" style="display:none;">
	
		<image style="display:inline;overflow:visible;" width="1721" height="1000" id="Layer_0_xA0_Image" xlink:href="5D13034C88EC4D46.png"  transform="matrix(0.5 0 0 0.5 0 0)">
	</image>
</g>
<g id="COCOON">
	<g>
		<path style="fill:none;stroke:#FFFFFF;stroke-miterlimit:10;" d="M286.384,271.897c-2.598,1.905-6.121,3.066-10.573,3.484
			c-0.511,0.046-1.067,0.08-1.669,0.104c-0.603,0.022-1.229,0.035-1.878,0.035c-7.513,0-13.634-2.37-18.364-7.109
			c-4.777-4.785-7.165-10.942-7.165-18.469c0-7.527,2.365-13.66,7.095-18.399c4.776-4.785,10.921-7.179,18.434-7.179
			c4.266,0,8.115,0.627,11.547,1.882c2.04,0.791,4.011,1.928,5.913,3.415v3.554c-1.948-1.626-4.081-2.927-6.399-3.903
			c-3.525-1.439-7.211-2.161-11.06-2.161c-6.585,0-12.011,2.138-16.277,6.412c-4.267,4.275-6.399,9.734-6.399,16.378
			c0,6.645,2.109,12.081,6.33,16.309c4.266,4.275,9.714,6.412,16.347,6.412c4.127,0,7.721-0.743,10.782-2.23
			c1.762-0.882,3.988-2.3,6.678-4.252v3.276L286.384,271.897z"/>
		<path style="fill:none;stroke:#FFFFFF;stroke-miterlimit:10;" d="M356.501,268.343c-4.777,4.786-10.921,7.179-18.434,7.179
			s-13.634-2.37-18.364-7.109c-4.777-4.785-7.165-10.942-7.165-18.469c0-7.527,2.365-13.66,7.095-18.399
			c4.776-4.785,10.921-7.179,18.434-7.179c7.466,0,13.61,2.37,18.434,7.109c4.776,4.786,7.165,10.942,7.165,18.469
			C363.666,257.47,361.277,263.604,356.501,268.343z M354.484,233.565c-4.267-4.274-9.738-6.412-16.416-6.412
			c-6.585,0-12.011,2.138-16.277,6.412c-4.267,4.275-6.399,9.734-6.399,16.378c0,6.645,2.109,12.081,6.33,16.309
			c4.266,4.275,9.714,6.412,16.347,6.412c6.678,0,12.149-2.091,16.416-6.272c4.22-4.228,6.33-9.711,6.33-16.448
			C360.814,243.252,358.704,237.793,354.484,233.565z"/>
		<path style="fill:none;stroke:#FFFFFF;stroke-miterlimit:10;" d="M420.496,271.897c-2.598,1.905-6.121,3.066-10.573,3.484
			c-0.511,0.046-1.067,0.08-1.669,0.104c-0.603,0.022-1.229,0.035-1.878,0.035c-7.513,0-13.634-2.37-18.364-7.109
			c-4.777-4.785-7.165-10.942-7.165-18.469c0-7.527,2.365-13.66,7.095-18.399c4.776-4.785,10.921-7.179,18.434-7.179
			c4.266,0,8.115,0.627,11.547,1.882c2.04,0.791,4.011,1.928,5.913,3.415v3.554c-1.948-1.626-4.081-2.927-6.399-3.903
			c-3.525-1.439-7.211-2.161-11.06-2.161c-6.585,0-12.011,2.138-16.277,6.412c-4.267,4.275-6.399,9.734-6.399,16.378
			c0,6.645,2.109,12.081,6.33,16.309c4.266,4.275,9.714,6.412,16.347,6.412c4.127,0,7.721-0.743,10.782-2.23
			c1.762-0.882,3.988-2.3,6.678-4.252v3.276L420.496,271.897z"/>
		<path style="fill:none;stroke:#FFFFFF;stroke-miterlimit:10;" d="M483.658,268.343c-4.777,4.786-10.921,7.179-18.434,7.179
			s-13.634-2.37-18.364-7.109c-4.776-4.785-7.164-10.942-7.164-18.469c0-7.527,2.364-13.66,7.095-18.399
			c4.775-4.785,10.921-7.179,18.434-7.179c7.466,0,13.61,2.37,18.434,7.109c4.775,4.786,7.165,10.942,7.165,18.469
			C490.823,257.47,488.433,263.604,483.658,268.343z M481.64,233.565c-4.267-4.274-9.738-6.412-16.416-6.412
			c-6.586,0-12.011,2.138-16.277,6.412c-4.267,4.275-6.399,9.734-6.399,16.378c0,6.645,2.109,12.081,6.33,16.309
			c4.266,4.275,9.715,6.412,16.347,6.412c6.678,0,12.149-2.091,16.416-6.272c4.22-4.228,6.33-9.711,6.33-16.448
			C487.97,243.252,485.86,237.793,481.64,233.565z"/>
		<path style="fill:none;stroke:#FFFFFF;stroke-miterlimit:10;" d="M548.697,268.343c-4.777,4.786-10.921,7.179-18.434,7.179
			s-13.634-2.37-18.364-7.109c-4.776-4.785-7.164-10.942-7.164-18.469c0-7.527,2.364-13.66,7.095-18.399
			c4.775-4.785,10.921-7.179,18.434-7.179c7.466,0,13.61,2.37,18.434,7.109c4.775,4.786,7.165,10.942,7.165,18.469
			C555.862,257.47,553.472,263.604,548.697,268.343z M546.679,233.565c-4.267-4.274-9.738-6.412-16.416-6.412
			c-6.586,0-12.011,2.138-16.277,6.412c-4.267,4.275-6.399,9.734-6.399,16.378c0,6.645,2.109,12.081,6.33,16.309
			c4.266,4.275,9.715,6.412,16.347,6.412c6.678,0,12.149-2.091,16.416-6.272c4.22-4.228,6.33-9.711,6.33-16.448
			C553.009,243.252,550.899,237.793,546.679,233.565z"/>
		<path style="fill:none;stroke:#FFFFFF;stroke-miterlimit:10;" d="M576.312,232.589v42.235h-2.782v-50.111l37.075,43.559v-43.21
			h2.853v50.598L576.312,232.589z"/>
	</g>
</g>
		<style type="text/css">
		 path {
        stroke-dasharray: 800; 
        stroke-dashoffset: 800;
        display: inline;
        -webkit-animation: dash 3s .5s linear forwards;    
    }
  
    @-webkit-keyframes dash {
            0% {
                display: inline;
                stroke-dashoffset: 800;
								fill: rgba(255,255,255,0)
            }
			
						50%  {
											fill: rgba(255,255,255,0.8)
									}
			
						85%  {
								fill: rgba(255,255,255,0.8)
						}
			
            100% {    
                    
                	fill: #ffffff;  
									stroke-dashoffset: 0;
                }

        }
	</style>
</svg>
