<svg version="1.1" id="Layer_1" xmlns="http://www.w3.org/2000/svg" xmlns:xlink="http://www.w3.org/1999/xlink" x="0px" y="0px"
	 width="720px" height="720px" viewBox="0 0 720 720" style="enable-background:new 0 0 720 720;" xml:space="preserve">
<g>
	<path style="display:none;fill-rule:evenodd;clip-rule:evenodd;" d="M534.067,360.521c-1.01,1.106-1.62,1.833-2.289,2.5
		c-56.276,56.129-112.557,112.254-168.849,168.367c-0.205,0.205-0.567,0.252-1.036,0.447c-0.418-0.316-0.968-0.638-1.404-1.073
		C303.816,474.152,247.151,417.533,190.45,360.88c0.687-1.95,2.142-3.004,3.352-4.208c11.901-11.845,23.861-23.631,35.74-35.498
		c43.107-43.065,86.188-86.156,129.286-129.23c0.989-0.989,2.059-1.897,3.183-2.928c0.988,0.803,1.78,1.337,2.443,2
		C420.897,247.409,477.33,303.813,534.067,360.521z M362.174,271.586c-0.402,0.145-0.967,0.18-1.268,0.48
		c-28.802,28.662-57.585,57.342-86.356,86.036c-0.658,0.656-1.156,1.474-1.671,2.142c0.459,2.274,2.204,3.328,3.518,4.647
		c13.663,13.716,27.368,27.389,41.059,41.076c13.125,13.121,26.237,26.256,39.385,39.354c1.56,1.554,2.916,3.409,5.193,4.289
		c1.891-0.71,3.048-2.294,4.379-3.623c13.139-13.108,26.256-26.239,39.38-39.362c14.029-14.028,28.068-28.048,42.078-42.096
		c1.213-1.216,2.791-2.196,3.232-4.383c-0.823-0.947-1.699-2.073-2.691-3.083C412.34,320.338,365.601,274.014,362.174,271.586z"/>
	<g class="lower-logo">
		<path style="fill-rule:evenodd;clip-rule:evenodd;fill:#0A8271;" d="M534.838,445.813c-9.821-9.822-19.521-19.523-29.412-29.418
			c-1.056,0.844-1.958,1.435-2.705,2.182c-27.619,27.588-55.224,55.189-82.83,82.79c-17.536,17.534-35.064,35.076-52.622,52.588
			c-1.33,1.327-2.42,3.011-4.383,3.567c-2.054-0.479-3.178-2.144-4.514-3.476c-15.519-15.479-31.011-30.982-46.513-46.479
			c-29.191-29.183-58.381-58.364-87.58-87.538c-1.107-1.105-2.301-2.125-3.629-3.345c-3.941,2.991-6.941,6.519-10.238,9.714
			c-3.217,3.117-6.359,6.311-9.499,9.504c-3.237,3.293-6.677,6.397-9.751,9.967c0.496,0.712,0.786,1.295,1.223,1.73
			c56.426,56.464,112.861,112.916,169.31,169.357c0.32,0.321,0.812,0.472,1.2,0.69c3.724-2.832,155.343-153.903,170.001-169.394
			C533.533,447.581,534.059,446.8,534.838,445.813z"/>
		<path style="fill-rule:evenodd;clip-rule:evenodd;fill:#0B8C7B;" d="M362.886,557.522c-2.054-0.479-3.178-2.144-4.514-3.476
			c-15.519-15.479-31.011-30.982-46.513-46.479c-29.191-29.183-58.381-58.364-87.58-87.538c-1.107-1.105-2.301-2.125-3.629-3.345
			c-3.941,2.991-6.941,6.519-10.238,9.714c-3.217,3.117-6.359,6.311-9.499,9.504c-3.237,3.293-6.677,6.397-9.751,9.967
			c0.496,0.712,0.786,1.295,1.223,1.73c56.426,56.464,112.861,112.916,169.31,169.357c0.32,0.321,0.812,0.472,1.2,0.69"/>
	</g>
	<g class="upper-logo">
		<path style="fill-rule:evenodd;clip-rule:evenodd;fill:#0A8271;" d="M534.027,277.105c-9.821,9.822-19.521,19.523-29.412,29.418
			c-1.056-0.844-1.958-1.435-2.705-2.182c-27.619-27.588-55.224-55.189-82.83-82.791c-17.536-17.534-35.064-35.076-52.622-52.588
			c-1.33-1.327-2.42-3.01-4.383-3.567c-2.054,0.48-3.178,2.143-4.514,3.476c-15.519,15.478-31.011,30.983-46.513,46.479
			c-29.191,29.182-58.381,58.364-87.581,87.538c-1.106,1.105-2.3,2.125-3.628,3.345c-3.941-2.991-6.942-6.519-10.239-9.714
			c-3.216-3.117-6.358-6.311-9.499-9.504c-3.238-3.293-6.677-6.397-9.751-9.967c0.497-0.712,0.787-1.295,1.223-1.73
			C248,218.855,304.436,162.402,360.884,105.961c0.32-0.321,0.812-0.472,1.2-0.69c3.724,2.832,155.343,153.903,170.001,169.394
			C532.723,275.338,533.248,276.119,534.027,277.105z"/>
		<path style="fill-rule:evenodd;clip-rule:evenodd;fill:#0B8C7B;" d="M362.075,165.396c-2.054,0.48-3.178,2.143-4.514,3.476
			c-15.519,15.478-31.011,30.983-46.513,46.479c-29.191,29.182-58.381,58.364-87.581,87.538c-1.106,1.105-2.3,2.124-3.628,3.344
			c-3.941-2.992-6.942-6.519-10.239-9.714c-3.216-3.117-6.358-6.311-9.499-9.504c-3.238-3.293-6.677-6.397-9.751-9.966
			c0.497-0.712,0.787-1.295,1.223-1.731C248,218.855,304.436,162.402,360.884,105.961c0.32-0.321,0.812-0.472,1.2-0.69"/>
	</g>
</g>
<g class="mid-logo">
	<path style="fill:#0B8C7B;" d="M356.841,443.557c-13.148-13.099-26.261-26.233-39.386-39.354
	c-13.69-13.688-27.396-27.36-41.059-41.076c-1.313-1.319-3.059-2.373-3.518-4.647c0.516-0.668,1.014-1.485,1.672-2.142
	c27.915-27.841,55.845-55.668,83.79-83.479v-82.192c-42.935,42.912-85.854,85.84-128.798,128.743
	c-11.879,11.867-23.84,23.653-35.74,35.498c-1.211,1.205-2.666,2.259-3.353,4.209c55.985,55.938,111.935,111.841,167.891,167.735
	v-81.725C357.837,444.6,357.349,444.062,356.841,443.557z"/>
<path style="fill:#0A8271;" d="M359.5,443.557c13.148-13.099,26.261-26.233,39.386-39.354c13.69-13.688,27.396-27.36,41.059-41.076
	c1.313-1.319,3.059-2.373,3.518-4.647c-0.516-0.668-1.014-1.485-1.672-2.142c-27.915-27.841-55.845-55.668-83.79-83.479v-82.192
	c42.935,42.912,85.854,85.84,128.798,128.743c11.879,11.867,23.84,23.653,35.74,35.498c1.211,1.205,2.666,2.259,3.353,4.209
	C469.905,415.053,413.956,470.956,358,526.851v-81.725C358.504,444.6,358.992,444.062,359.5,443.557z"/>
</g>

<style>
	.lower-logo {
		opacity: 0;
		-webkit-transform: translate(-5px, -200px);
	animation-fill-mode: forwards;
	   animation-name: glide-down;
  animation-duration: 1s; 
  animation-timing-function: ease-in-out; 
  animation-delay: 0;
  
	}
	
	@-webkit-keyframes glide-down {
	 0% {
			opacity: 0;
			-webkit-transform: translate(-5px, -200px);
		}
	
	100% {
	 	opacity: 100;
	-webkit-transform: translate(-5px, 0px);
		}
	}
	
	.upper-logo {
		opacity: 0;
		-webkit-transform: translate(-5px, 200px);
	animation-fill-mode: forwards;
	   animation-name: glide-up;
  animation-duration: 1s; 
  animation-timing-function: ease-in-out; 
  animation-delay: 0;
  
	}
	
	@-webkit-keyframes glide-up {
	 0% {
			opacity: 0;
			-webkit-transform: translate(-5px, 200px);
		}
	
	100% {
	 	opacity: 100;
	-webkit-transform: translate(-5px, 0px);
		}
	}
	
	.mid-logo {
		opacity: 1;
		
	-webkit-transform-origin: 50% 50%;
	animation-fill-mode: forwards;
	   animation-name: rotate;
  animation-duration: 1s; 
  animation-timing-function: ease-in-out; 
  animation-delay: 0;
	}
	
</style>
</svg>

